<svg width="300" height="400" viewBox="0 0 300 400" xmlns="http://www.w3.org/2000/svg">
  <rect width="300" height="400" fill="white"/>
  <rect x="20" y="20" width="260" height="60" fill="none" stroke="#1e293b" stroke-width="3"/>
  <rect x="30" y="35" width="120" height="8" fill="#1e293b" rx="2"/>
  <rect x="30" y="50" width="80" height="6" fill="#64748b" rx="2"/>
  
  <rect x="20" y="100" width="260" height="2" fill="#1e293b"/>
  
  <rect x="30" y="120" width="100" height="8" fill="#1e293b" rx="2"/>
  <rect x="30" y="140" width="240" height="4" fill="#64748b" rx="2"/>
  <rect x="30" y="150" width="220" height="4" fill="#64748b" rx="2"/>
  <rect x="30" y="160" width="200" height="4" fill="#64748b" rx="2"/>
  <rect x="30" y="170" width="230" height="4" fill="#64748b" rx="2"/>
  
  <rect x="20" y="200" width="260" height="2" fill="#1e293b"/>
  
  <rect x="30" y="220" width="100" height="8" fill="#1e293b" rx="2"/>
  <rect x="30" y="240" width="200" height="4" fill="#64748b" rx="2"/>
  <rect x="30" y="250" width="180" height="4" fill="#64748b" rx="2"/>
  <rect x="30" y="260" width="210" height="4" fill="#64748b" rx="2"/>
  
  <rect x="20" y="290" width="260" height="2" fill="#1e293b"/>
  
  <rect x="30" y="310" width="100" height="8" fill="#1e293b" rx="2"/>
  <rect x="30" y="330" width="160" height="4" fill="#64748b" rx="2"/>
  <rect x="30" y="340" width="140" height="4" fill="#64748b" rx="2"/>
  <rect x="30" y="350" width="150" height="4" fill="#64748b" rx="2"/>
  
  <!-- Clean template without branding text -->
</svg>
