<svg width="300" height="400" viewBox="0 0 300 400" fill="none" xmlns="http://www.w3.org/2000/svg">
  <!-- Atlas - centrerad executive serif med navy + gold-accent -->
  <rect width="300" height="400" fill="white"/>

  <!-- Eyebrow: EXECUTIVE PROFILE -->
  <rect x="105" y="38" width="90" height="3" fill="#a88b5c" rx="0.5"/>

  <!-- Stort centrerat namn -->
  <rect x="60" y="56" width="180" height="14" fill="#0f172a" rx="1"/>

  <!-- Roll (italic look - tunn linje) -->
  <rect x="90" y="80" width="120" height="5" fill="#475569" rx="0.5"/>

  <!-- Meta-line centrerad -->
  <rect x="50" y="98" width="200" height="3" fill="#475569" rx="0.5"/>

  <!-- Dubbel-linje under header (signaturmarke) -->
  <line x1="115" y1="118" x2="185" y2="118" stroke="#0f172a" stroke-width="1.2"/>
  <line x1="115" y1="122" x2="185" y2="122" stroke="#a88b5c" stroke-width="0.8"/>

  <!-- Sammanfattning (justified look) -->
  <rect x="40" y="138" width="220" height="3" fill="#1f2937" rx="0.5"/>
  <rect x="40" y="146" width="220" height="3" fill="#1f2937" rx="0.5"/>
  <rect x="40" y="154" width="220" height="3" fill="#1f2937" rx="0.5"/>
  <rect x="40" y="162" width="200" height="3" fill="#1f2937" rx="0.5"/>

  <!-- Sektion: ARBETSLIVSERFARENHET (centrerad) -->
  <rect x="100" y="188" width="100" height="4" fill="#0f172a" rx="0.5"/>
  <line x1="135" y1="200" x2="165" y2="200" stroke="#a88b5c" stroke-width="1"/>

  <!-- Job 1 -->
  <rect x="40" y="216" width="120" height="5" fill="#0f172a" rx="0.5"/>
  <rect x="210" y="218" width="50" height="3" fill="#64748b" rx="0.5"/>
  <rect x="40" y="228" width="100" height="3.5" fill="#475569" rx="0.5"/>

  <rect x="46" y="244" width="3" height="3" fill="#a88b5c"/>
  <rect x="56" y="243" width="200" height="2.5" fill="#1f2937" rx="0.5"/>
  <rect x="46" y="252" width="3" height="3" fill="#a88b5c"/>
  <rect x="56" y="251" width="190" height="2.5" fill="#1f2937" rx="0.5"/>
  <rect x="46" y="260" width="3" height="3" fill="#a88b5c"/>
  <rect x="56" y="259" width="180" height="2.5" fill="#1f2937" rx="0.5"/>

  <!-- Job 2 -->
  <rect x="40" y="282" width="110" height="5" fill="#0f172a" rx="0.5"/>
  <rect x="210" y="284" width="50" height="3" fill="#64748b" rx="0.5"/>
  <rect x="40" y="294" width="90" height="3.5" fill="#475569" rx="0.5"/>

  <rect x="46" y="310" width="3" height="3" fill="#a88b5c"/>
  <rect x="56" y="309" width="195" height="2.5" fill="#1f2937" rx="0.5"/>

  <!-- Botten: Education + Skills (2-kolumns) -->
  <line x1="40" y1="340" x2="260" y2="340" stroke="#e5e7eb" stroke-width="1"/>

  <!-- Vänster: UTBILDNING -->
  <rect x="40" y="350" width="60" height="3" fill="#0f172a" rx="0.5"/>
  <line x1="40" y1="358" x2="140" y2="358" stroke="#a88b5c" stroke-width="0.8"/>
  <rect x="40" y="366" width="100" height="4" fill="#0f172a" rx="0.5"/>
  <rect x="40" y="375" width="80" height="2.5" fill="#475569" rx="0.5"/>
  <rect x="40" y="382" width="40" height="2.5" fill="#64748b" rx="0.5"/>

  <!-- Höger: KOMPETENSER -->
  <rect x="160" y="350" width="60" height="3" fill="#0f172a" rx="0.5"/>
  <line x1="160" y1="358" x2="260" y2="358" stroke="#a88b5c" stroke-width="0.8"/>
  <rect x="160" y="366" width="40" height="2.5" fill="#a88b5c" rx="0.5"/>
  <rect x="160" y="374" width="95" height="2.5" fill="#1f2937" rx="0.5"/>
  <rect x="160" y="380" width="80" height="2.5" fill="#1f2937" rx="0.5"/>
</svg>
