<svg width="300" height="400" viewBox="0 0 300 400" xmlns="http://www.w3.org/2000/svg">
  <rect width="300" height="400" fill="#f1f5f9"/>
  <rect x="20" y="20" width="260" height="50" fill="#22c55e" rx="4"/>
  <rect x="30" y="35" width="120" height="8" fill="white" rx="2"/>
  <rect x="30" y="48" width="80" height="6" fill="#dcfce7" rx="2"/>
  
  <rect x="30" y="90" width="240" height="6" fill="#1e293b" rx="2"/>
  <rect x="30" y="110" width="240" height="4" fill="#64748b" rx="2"/>
  <rect x="30" y="120" width="220" height="4" fill="#64748b" rx="2"/>
  <rect x="30" y="130" width="200" height="4" fill="#64748b" rx="2"/>
  
  <rect x="20" y="160" width="120" height="100" fill="white" rx="4"/>
  <rect x="30" y="175" width="80" height="6" fill="#22c55e" rx="2"/>
  <rect x="30" y="190" width="90" height="4" fill="#64748b" rx="2"/>
  <rect x="30" y="200" width="85" height="4" fill="#64748b" rx="2"/>
  <rect x="30" y="220" width="100" height="4" fill="#16a34a" rx="2"/>
  <rect x="30" y="235" width="80" height="4" fill="#16a34a" rx="2"/>
  
  <rect x="160" y="160" width="120" height="100" fill="white" rx="4"/>
  <rect x="170" y="175" width="80" height="6" fill="#22c55e" rx="2"/>
  <rect x="170" y="190" width="90" height="4" fill="#64748b" rx="2"/>
  <rect x="170" y="200" width="85" height="4" fill="#64748b" rx="2"/>
  
  <text x="150" y="395" text-anchor="middle" font-family="Arial, sans-serif" font-size="10" fill="#16a34a">ATS-Optimerad</text>
</svg>
