<svg width="300" height="400" viewBox="0 0 300 400" fill="none" xmlns="http://www.w3.org/2000/svg">
  <!-- Classic Professional Template -->
  <rect width="300" height="400" fill="white"/>
  <rect x="0" y="0" width="300" height="400" stroke="#e5e7eb" stroke-width="2"/>
  
  <!-- Header with formal styling -->
  <rect x="20" y="20" width="260" height="70" fill="#f9fafb" stroke="#d1d5db"/>
  <rect x="35" y="35" width="140" height="8" fill="#111827" rx="4"/>
  <rect x="35" y="50" width="90" height="5" fill="#6b7280" rx="2"/>
  <rect x="35" y="62" width="110" height="5" fill="#6b7280" rx="2"/>
  <rect x="35" y="74" width="100" height="5" fill="#6b7280" rx="2"/>
  
  <!-- Traditional section headers -->
  <rect x="20" y="110" width="80" height="6" fill="#1f2937" rx="3"/>
  <line x1="20" y1="125" x2="280" y2="125" stroke="#374151" stroke-width="2"/>
  
  <rect x="20" y="140" width="240" height="4" fill="#4b5563" rx="2"/>
  <rect x="20" y="150" width="220" height="4" fill="#4b5563" rx="2"/>
  <rect x="20" y="160" width="230" height="4" fill="#4b5563" rx="2"/>
  
  <rect x="20" y="185" width="90" height="6" fill="#1f2937" rx="3"/>
  <line x1="20" y1="200" x2="280" y2="200" stroke="#374151" stroke-width="2"/>
  
  <rect x="20" y="215" width="200" height="4" fill="#4b5563" rx="2"/>
  <rect x="20" y="225" width="180" height="4" fill="#4b5563" rx="2"/>
  
  <rect x="20" y="250" width="75" height="6" fill="#1f2937" rx="3"/>
  <line x1="20" y1="265" x2="280" y2="265" stroke="#374151" stroke-width="2"/>
  
  <rect x="20" y="280" width="160" height="4" fill="#4b5563" rx="2"/>
  <rect x="20" y="290" width="140" height="4" fill="#4b5563" rx="2"/>
  <rect x="20" y="300" width="150" height="4" fill="#4b5563" rx="2"/>
  
  <text x="150" y="390" text-anchor="middle" font-family="serif" font-size="12" fill="#6b7280">Klassisk Professionell</text>
</svg>