<svg width="300" height="400" viewBox="0 0 300 400" fill="none" xmlns="http://www.w3.org/2000/svg">
  <!-- Classic Professional Template -->
  <rect width="300" height="400" fill="white"/>
  
  <!-- Header Section -->
  <rect x="20" y="20" width="260" height="70" fill="#f8fafc"/>
  <rect x="30" y="35" width="140" height="8" fill="#1e293b" rx="4"/>
  <rect x="30" y="50" width="100" height="5" fill="#64748b" rx="2"/>
  <rect x="30" y="60" width="120" height="5" fill="#64748b" rx="2"/>
  <rect x="30" y="70" width="80" height="4" fill="#64748b" rx="2"/>
  
  <!-- Professional Summary -->
  <rect x="20" y="110" width="90" height="5" fill="#2563eb" rx="2"/>
  <line x1="20" y1="120" x2="280" y2="120" stroke="#e2e8f0" stroke-width="1"/>
  <rect x="20" y="130" width="240" height="3" fill="#374151" rx="1"/>
  <rect x="20" y="138" width="220" height="3" fill="#374151" rx="1"/>
  <rect x="20" y="146" width="200" height="3" fill="#374151" rx="1"/>
  
  <!-- Work Experience -->
  <rect x="20" y="165" width="100" height="5" fill="#2563eb" rx="2"/>
  <line x1="20" y1="175" x2="280" y2="175" stroke="#e2e8f0" stroke-width="1"/>
  
  <!-- First Job -->
  <rect x="20" y="185" width="120" height="4" fill="#1e293b" rx="2"/>
  <rect x="20" y="194" width="80" height="3" fill="#64748b" rx="1"/>
  <rect x="20" y="202" width="180" height="2" fill="#9ca3af" rx="1"/>
  <rect x="20" y="208" width="160" height="2" fill="#9ca3af" rx="1"/>
  <rect x="20" y="214" width="170" height="2" fill="#9ca3af" rx="1"/>
  
  <!-- Second Job -->
  <rect x="20" y="230" width="110" height="4" fill="#1e293b" rx="2"/>
  <rect x="20" y="239" width="75" height="3" fill="#64748b" rx="1"/>
  <rect x="20" y="247" width="160" height="2" fill="#9ca3af" rx="1"/>
  <rect x="20" y="253" width="140" height="2" fill="#9ca3af" rx="1"/>
  
  <!-- Education -->
  <rect x="20" y="270" width="70" height="5" fill="#2563eb" rx="2"/>
  <line x1="20" y1="280" x2="280" y2="280" stroke="#e2e8f0" stroke-width="1"/>
  <rect x="20" y="290" width="130" height="4" fill="#1e293b" rx="2"/>
  <rect x="20" y="299" width="90" height="3" fill="#64748b" rx="1"/>
  
  <!-- Skills -->
  <rect x="20" y="320" width="60" height="5" fill="#2563eb" rx="2"/>
  <line x1="20" y1="330" x2="280" y2="330" stroke="#e2e8f0" stroke-width="1"/>
  
  <!-- Skill items in traditional format -->
  <rect x="20" y="340" width="45" height="12" fill="#dbeafe" rx="6"/>
  <rect x="75" y="340" width="55" height="12" fill="#dbeafe" rx="6"/>
  <rect x="140" y="340" width="40" height="12" fill="#dbeafe" rx="6"/>
  <rect x="190" y="340" width="50" height="12" fill="#dbeafe" rx="6"/>
  
  <text x="150" y="390" text-anchor="middle" font-family="system-ui" font-size="12" fill="#64748b">Classic Professional</text>
</svg>