<svg width="300" height="400" viewBox="0 0 300 400" fill="none" xmlns="http://www.w3.org/2000/svg">
  <!-- Clean Corporate Template -->
  <defs>
    <linearGradient id="corporateGradient" x1="0%" y1="0%" x2="100%" y2="100%">
      <stop offset="0%" style="stop-color:#1e40af;stop-opacity:0.1" />
      <stop offset="100%" style="stop-color:#3b82f6;stop-opacity:0.05" />
    </linearGradient>
  </defs>
  
  <rect width="300" height="400" fill="white"/>
  
  <!-- Corporate header with subtle gradient -->
  <rect x="0" y="0" width="300" height="90" fill="url(#corporateGradient)"/>
  <rect x="30" y="25" width="150" height="8" fill="#1e40af" rx="4"/>
  <rect x="30" y="40" width="100" height="5" fill="#3b82f6" rx="2"/>
  <rect x="30" y="52" width="120" height="5" fill="#60a5fa" rx="2"/>
  <rect x="30" y="64" width="90" height="5" fill="#60a5fa" rx="2"/>
  
  <!-- Clean content sections -->
  <rect x="30" y="110" width="70" height="5" fill="#1e40af" rx="2"/>
  <rect x="30" y="125" width="220" height="3" fill="#374151" rx="1"/>
  <rect x="30" y="135" width="200" height="3" fill="#374151" rx="1"/>
  <rect x="30" y="145" width="210" height="3" fill="#374151" rx="1"/>
  <rect x="30" y="155" width="180" height="3" fill="#374151" rx="1"/>
  
  <rect x="30" y="180" width="80" height="5" fill="#1e40af" rx="2"/>
  <rect x="30" y="195" width="240" height="3" fill="#374151" rx="1"/>
  <rect x="30" y="205" width="220" height="3" fill="#374151" rx="1"/>
  <rect x="30" y="215" width="190" height="3" fill="#374151" rx="1"/>
  
  <rect x="30" y="240" width="75" height="5" fill="#1e40af" rx="2"/>
  <rect x="30" y="255" width="180" height="3" fill="#374151" rx="1"/>
  <rect x="30" y="265" width="160" height="3" fill="#374151" rx="1"/>
  <rect x="30" y="275" width="170" height="3" fill="#374151" rx="1"/>
  
  <!-- Corporate accent elements -->
  <rect x="30" y="300" width="240" height="1" fill="#e5e7eb"/>
  <circle cx="35" cy="320" r="3" fill="#3b82f6"/>
  <rect x="50" y="317" width="80" height="3" fill="#6b7280" rx="1"/>
  
  <text x="150" y="390" text-anchor="middle" font-family="system-ui" font-size="12" fill="#1e40af">Ren Företagsstil</text>
</svg>