<svg width="300" height="400" viewBox="0 0 300 400" fill="none" xmlns="http://www.w3.org/2000/svg">
  <!-- Creative Edge Template - Premium -->
  <defs>
    <linearGradient id="creativeGradient" x1="0%" y1="0%" x2="0%" y2="100%">
      <stop offset="0%" style="stop-color:#8b5cf6;stop-opacity:1" />
      <stop offset="100%" style="stop-color:#a855f7;stop-opacity:0.9" />
    </linearGradient>
    <linearGradient id="accentGradient" x1="0%" y1="0%" x2="100%" y2="0%">
      <stop offset="0%" style="stop-color:#ec4899" />
      <stop offset="100%" style="stop-color:#8b5cf6" />
    </linearGradient>
  </defs>
  
  <rect width="300" height="400" fill="white"/>
  
  <!-- Creative header with angle -->
  <polygon points="0,0 300,0 300,100 0,120" fill="url(#creativeGradient)"/>
  
  <!-- Main content area -->
  <rect x="30" y="35" width="140" height="8" fill="white" rx="4"/>
  <rect x="30" y="50" width="90" height="5" fill="rgba(255,255,255,0.9)" rx="2"/>
  <rect x="30" y="62" width="110" height="5" fill="rgba(255,255,255,0.8)" rx="2"/>
  <rect x="30" y="74" width="80" height="4" fill="rgba(255,255,255,0.7)" rx="2"/>
  
  <!-- Creative section design -->
  <!-- Professional Summary -->
  <rect x="30" y="140" width="5" height="30" fill="url(#accentGradient)" rx="2"/>
  <rect x="45" y="145" width="80" height="5" fill="#7c3aed" rx="2"/>
  <rect x="45" y="160" width="200" height="3" fill="#374151" rx="1"/>
  <rect x="45" y="168" width="180" height="3" fill="#374151" rx="1"/>
  <rect x="45" y="176" width="190" height="3" fill="#374151" rx="1"/>
  
  <!-- Experience with creative accents -->
  <circle cx="32" cy="200" r="8" fill="#ec4899"/>
  <rect x="45" y="195" width="90" height="5" fill="#7c3aed" rx="2"/>
  
  <!-- First job -->
  <rect x="45" y="210" width="100" height="4" fill="#1e293b" rx="2"/>
  <rect x="45" y="219" width="70" height="3" fill="#64748b" rx="1"/>
  <rect x="45" y="227" width="160" height="2" fill="#94a3b8" rx="1"/>
  <rect x="45" y="233" width="150" height="2" fill="#94a3b8" rx="1"/>
  <rect x="45" y="239" width="140" height="2" fill="#94a3b8" rx="1"/>
  
  <!-- Second job -->
  <rect x="45" y="255" width="95" height="4" fill="#1e293b" rx="2"/>
  <rect x="45" y="264" width="65" height="3" fill="#64748b" rx="1"/>
  <rect x="45" y="272" width="150" height="2" fill="#94a3b8" rx="1"/>
  <rect x="45" y="278" width="135" height="2" fill="#94a3b8" rx="1"/>
  
  <!-- Education with geometric accent -->
  <rect x="30" y="295" width="8" height="8" fill="#8b5cf6" rx="1" transform="rotate(45 34 299)"/>
  <rect x="45" y="295" width="70" height="5" fill="#7c3aed" rx="2"/>
  <rect x="45" y="310" width="110" height="4" fill="#1e293b" rx="2"/>
  <rect x="45" y="319" width="80" height="3" fill="#64748b" rx="1"/>
  
  <!-- Skills with creative layout -->
  <rect x="45" y="340" width="60" height="5" fill="#7c3aed" rx="2"/>
  <rect x="45" y="355" width="40" height="10" fill="#f3e8ff" rx="5"/>
  <rect x="95" y="355" width="50" height="10" fill="#f3e8ff" rx="5"/>
  <rect x="155" y="355" width="35" height="10" fill="#f3e8ff" rx="5"/>
  
  <!-- Creative accent elements -->
  <circle cx="250" cy="150" r="20" fill="#fce7f3" opacity="0.5"/>
  <circle cx="270" cy="200" r="15" fill="#ede9fe" opacity="0.7"/>
  
  <text x="150" y="390" text-anchor="middle" font-family="system-ui" font-size="12" fill="#7c3aed">Creative Edge</text>
</svg>