<svg width="300" height="400" viewBox="0 0 300 400" fill="none" xmlns="http://www.w3.org/2000/svg">
  <!-- Creative Edge Template -->
  <defs>
    <linearGradient id="creativeGradient" x1="0%" y1="0%" x2="100%" y2="0%">
      <stop offset="0%" style="stop-color:#7c3aed;stop-opacity:0.8" />
      <stop offset="100%" style="stop-color:#ec4899;stop-opacity:0.6" />
    </linearGradient>
  </defs>
  
  <rect width="300" height="400" fill="#fefefe"/>
  
  <!-- Creative sidebar -->
  <rect x="0" y="0" width="80" height="400" fill="url(#creativeGradient)"/>
  
  <!-- Main content area -->
  <rect x="95" y="30" width="140" height="8" fill="#1f2937" rx="4"/>
  <rect x="95" y="45" width="90" height="5" fill="#6b7280" rx="2"/>
  <rect x="95" y="57" width="110" height="5" fill="#6b7280" rx="2"/>
  
  <!-- Creative section headers -->
  <circle cx="40" cy="80" r="15" fill="rgba(255,255,255,0.2)"/>
  <rect x="95" y="75" width="60" height="5" fill="#7c3aed" rx="2"/>
  <rect x="95" y="90" width="180" height="3" fill="#374151" rx="1"/>
  <rect x="95" y="100" width="160" height="3" fill="#374151" rx="1"/>
  <rect x="95" y="110" width="170" height="3" fill="#374151" rx="1"/>
  
  <circle cx="40" cy="140" r="15" fill="rgba(255,255,255,0.2)"/>
  <rect x="95" y="135" width="70" height="5" fill="#ec4899" rx="2"/>
  <rect x="95" y="150" width="200" height="3" fill="#374151" rx="1"/>
  <rect x="95" y="160" width="180" height="3" fill="#374151" rx="1"/>
  <rect x="95" y="170" width="190" height="3" fill="#374151" rx="1"/>
  
  <circle cx="40" cy="200" r="15" fill="rgba(255,255,255,0.2)"/>
  <rect x="95" y="195" width="65" height="5" fill="#7c3aed" rx="2"/>
  <rect x="95" y="210" width="160" height="3" fill="#374151" rx="1"/>
  <rect x="95" y="220" width="140" height="3" fill="#374151" rx="1"/>
  <rect x="95" y="230" width="150" height="3" fill="#374151" rx="1"/>
  
  <!-- Creative decorative elements -->
  <rect x="15" y="280" width="50" height="2" fill="rgba(255,255,255,0.6)" rx="1"/>
  <rect x="15" y="290" width="30" height="2" fill="rgba(255,255,255,0.6)" rx="1"/>
  <rect x="15" y="300" width="40" height="2" fill="rgba(255,255,255,0.6)" rx="1"/>
  
  <text x="150" y="390" text-anchor="middle" font-family="system-ui" font-size="12" fill="#7c3aed">Kreativ Profil</text>
</svg>