<svg width="300" height="400" viewBox="0 0 300 400" fill="none" xmlns="http://www.w3.org/2000/svg">
  <!-- Creative Minimal Template - Modern Asymmetric Design -->
  <defs>
    <!-- Modern Purple Gradient -->
    <linearGradient id="modernPurple" x1="0%" y1="0%" x2="100%" y2="100%">
      <stop offset="0%" style="stop-color:#7c3aed;stop-opacity:1" />
      <stop offset="50%" style="stop-color:#a855f7;stop-opacity:0.98" />
      <stop offset="100%" style="stop-color:#8b5cf6;stop-opacity:1" />
    </linearGradient>
    
    <!-- Coral Accent -->
    <linearGradient id="coralAccent" x1="0%" y1="0%" x2="100%" y2="0%">
      <stop offset="0%" style="stop-color:#f97316" />
      <stop offset="50%" style="stop-color:#fb923c" />
      <stop offset="100%" style="stop-color:#f97316" />
    </linearGradient>
    
    <!-- Clean Background -->
    <linearGradient id="cleanBg" x1="0%" y1="0%" x2="0%" y2="100%">
      <stop offset="0%" style="stop-color:#ffffff" />
      <stop offset="100%" style="stop-color:#fefefe" />
    </linearGradient>
    
    <!-- Photo Shadow -->
    <filter id="modernPhotoShadow" x="-50%" y="-50%" width="200%" height="200%">
      <feDropShadow dx="0" dy="4" stdDeviation="8" flood-color="#7c3aed" flood-opacity="0.15"/>
      <feDropShadow dx="0" dy="1" stdDeviation="3" flood-color="#7c3aed" flood-opacity="0.08"/>
    </filter>
    
    <!-- LinkedIn Blue -->
    <linearGradient id="linkedInModern">
      <stop offset="0%" style="stop-color:#0077b5" />
      <stop offset="100%" style="stop-color:#005885" />
    </linearGradient>

    <!-- Dot Pattern -->
    <pattern id="dotPattern" patternUnits="userSpaceOnUse" width="3" height="3">
      <rect width="3" height="3" fill="rgba(124,58,237,0.03)"/>
      <circle cx="1.5" cy="1.5" r="0.3" fill="rgba(124,58,237,0.06)"/>
    </pattern>
  </defs>
  
  <!-- Clean White Background -->
  <rect width="300" height="400" fill="url(#cleanBg)"/>
  <rect width="300" height="400" fill="url(#dotPattern)" opacity="0.4"/>
  
  <!-- Vertical Accent Line -->
  <rect x="0" y="0" width="6" height="400" fill="url(#modernPurple)"/>
  <rect x="6" y="0" width="2" height="400" fill="url(#coralAccent)" opacity="0.6"/>
  
  <!-- Header Section with Photo, Name and LinkedIn -->
  <g id="modern-header-section">
    <!-- Header Background -->
    <rect x="20" y="25" width="270" height="80" fill="rgba(124,58,237,0.02)" rx="12" stroke="rgba(124,58,237,0.08)" stroke-width="1"/>
    
    <!-- Profile Photo Area -->
    <g id="modern-photo-area">
      <!-- Main photo container -->
      <circle cx="55" cy="65" r="25" fill="white" stroke="rgba(124,58,237,0.15)" stroke-width="2" filter="url(#modernPhotoShadow)"/>
      <circle cx="55" cy="65" r="22" fill="url(#dotPattern)" stroke="rgba(124,58,237,0.08)" stroke-width="1"/>
      
      <!-- Modern Professional Silhouette -->
      <g opacity="0.6">
        <!-- Head -->
        <circle cx="55" cy="58" r="7" fill="rgba(124,58,237,0.4)"/>
        <!-- Shoulders -->
        <ellipse cx="55" cy="75" rx="11" ry="7" fill="rgba(124,58,237,0.4)"/>
        <!-- Simple shirt -->
        <rect x="48" y="68" width="14" height="10" fill="rgba(124,58,237,0.3)" rx="2"/>
      </g>
    </g>
    
    <!-- Name and Title Area -->
    <g id="name-title-area">
      <!-- Name -->
      <rect x="95" y="40" width="120" height="12" fill="url(#modernPurple)" rx="3"/>
      <rect x="97" y="42" width="116" height="8" fill="rgba(255,255,255,0.95)" rx="2"/>
      
      <!-- Title -->
      <rect x="95" y="58" width="100" height="7" fill="rgba(124,58,237,0.7)" rx="2"/>
      
      <!-- Clean accent line -->
      <rect x="95" y="72" width="50" height="2" fill="url(#coralAccent)" rx="1"/>
    </g>
    
    <!-- LinkedIn Badge in Header -->
    <g id="header-linkedin-badge">
      <rect x="225" y="45" width="55" height="16" fill="rgba(0,119,181,0.08)" rx="8" stroke="rgba(0,119,181,0.2)" stroke-width="1"/>
      
      <!-- LinkedIn icon -->
      <rect x="231" y="49" width="5" height="4" fill="url(#linkedInModern)" rx="1"/>
      <!-- LinkedIn text -->
      <rect x="240" y="51" width="30" height="1.5" fill="url(#linkedInModern)" rx="0.5"/>
    </g>
  </g>
  
  <!-- Contact Information Bar -->
  <g id="modern-contact-bar">
    <rect x="20" y="120" width="270" height="35" fill="rgba(249,115,22,0.04)" rx="8" stroke="rgba(249,115,22,0.1)" stroke-width="1"/>
    
    <!-- Contact Items in Row -->
    <circle cx="35" cy="138" r="1.5" fill="rgba(124,58,237,0.7)"/>
    <rect x="42" y="136" width="70" height="3" fill="rgba(74,74,74,0.9)" rx="1"/>
    
    <circle cx="125" cy="138" r="1.5" fill="rgba(124,58,237,0.7)"/>
    <rect x="132" y="136" width="55" height="3" fill="rgba(74,74,74,0.9)" rx="1"/>
    
    <circle cx="200" cy="138" r="1.5" fill="rgba(124,58,237,0.7)"/>
    <rect x="207" y="136" width="75" height="3" fill="rgba(74,74,74,0.9)" rx="1"/>
  </g>
  
  
  <!-- Experience Section -->
  <g id="modern-experience">
    <!-- Section Header -->
    <rect x="25" y="205" width="120" height="8" fill="url(#modernPurple)" rx="4"/>
    <rect x="25" y="217" width="250" height="1" fill="url(#coralAccent)" opacity="0.6" rx="0.5"/>
    
    <!-- Experience Entry 1 -->
    <g transform="translate(25, 230)">
      <rect x="0" y="0" width="130" height="7" fill="rgba(124,58,237,0.9)" rx="2"/>
      <rect x="0" y="10" width="100" height="5" fill="rgba(74,85,104,0.9)" rx="1"/>
      <rect x="0" y="18" width="200" height="2.5" fill="rgba(113,128,150,0.8)" rx="1"/>
      <rect x="0" y="23" width="190" height="2.5" fill="rgba(113,128,150,0.75)" rx="1"/>
      <rect x="0" y="28" width="180" height="2.5" fill="rgba(113,128,150,0.7)" rx="1"/>
      
      <!-- Clean bullet -->
      <circle cx="207" cy="4" r="2" fill="url(#coralAccent)"/>
    </g>
    
    <!-- Experience Entry 2 -->
    <g transform="translate(25, 270)">
      <rect x="0" y="0" width="120" height="7" fill="rgba(124,58,237,0.9)" rx="2"/>
      <rect x="0" y="10" width="95" height="5" fill="rgba(74,85,104,0.9)" rx="1"/>
      <rect x="0" y="18" width="180" height="2.5" fill="rgba(113,128,150,0.8)" rx="1"/>
      <rect x="0" y="23" width="170" height="2.5" fill="rgba(113,128,150,0.75)" rx="1"/>
      
      <!-- Clean bullet -->
      <circle cx="187" cy="4" r="2" fill="url(#coralAccent)"/>
    </g>
  </g>
  
  <!-- Education Section -->
  <g id="modern-education">
    <rect x="25" y="305" width="90" height="8" fill="url(#modernPurple)" rx="4"/>
    <rect x="25" y="317" width="180" height="1" fill="url(#coralAccent)" opacity="0.6" rx="0.5"/>
    
    <!-- Education Entry -->
    <g transform="translate(25, 330)">
      <rect x="0" y="0" width="115" height="6" fill="rgba(124,58,237,0.9)" rx="2"/>
      <rect x="0" y="9" width="100" height="4" fill="rgba(74,85,104,0.9)" rx="1"/>
      <rect x="0" y="16" width="85" height="3" fill="rgba(113,128,150,0.8)" rx="1"/>
      
      <!-- Education icon -->
      <circle cx="127" cy="3" r="2" fill="url(#coralAccent)"/>
    </g>
  </g>
  
  <!-- Skills Section -->
  <g id="modern-skills">
    <rect x="25" y="355" width="80" height="8" fill="url(#modernPurple)" rx="4"/>
    
    <!-- Skills as modern tags -->
    <g transform="translate(25, 370)">
      <rect x="0" y="0" width="45" height="6" fill="rgba(124,58,237,0.1)" stroke="rgba(124,58,237,0.3)" stroke-width="0.5" rx="3"/>
      <rect x="50" y="0" width="50" height="6" fill="rgba(124,58,237,0.1)" stroke="rgba(124,58,237,0.3)" stroke-width="0.5" rx="3"/>
      <rect x="105" y="0" width="40" height="6" fill="rgba(124,58,237,0.1)" stroke="rgba(124,58,237,0.3)" stroke-width="0.5" rx="3"/>
      <rect x="150" y="0" width="55" height="6" fill="rgba(124,58,237,0.1)" stroke="rgba(124,58,237,0.3)" stroke-width="0.5" rx="3"/>
      
      <rect x="0" y="10" width="40" height="6" fill="rgba(124,58,237,0.1)" stroke="rgba(124,58,237,0.3)" stroke-width="0.5" rx="3"/>
      <rect x="45" y="10" width="48" height="6" fill="rgba(124,58,237,0.1)" stroke="rgba(124,58,237,0.3)" stroke-width="0.5" rx="3"/>
      <rect x="98" y="10" width="35" height="6" fill="rgba(124,58,237,0.1)" stroke="rgba(124,58,237,0.3)" stroke-width="0.5" rx="3"/>
    </g>
  </g>
  
  <!-- Subtle Decorative Elements -->
  <g id="modern-decoration" opacity="0.08">
    <circle cx="280" cy="30" r="2" fill="url(#coralAccent)"/>
    <rect x="270" y="385" width="6" height="1" fill="url(#coralAccent)" rx="0.5"/>
  </g>
</svg>