<svg width="300" height="400" viewBox="0 0 300 400" fill="none" xmlns="http://www.w3.org/2000/svg">
  <rect width="300" height="400" fill="white"/>

  <!-- Header med emerald accent -->
  <rect x="30" y="30" width="160" height="13" fill="#064e3b" rx="1"/>
  <rect x="30" y="50" width="100" height="6" fill="#10b981" rx="1"/>
  <rect x="30" y="64" width="180" height="3" fill="#475569" rx="0.5"/>
  <rect x="30" y="80" width="240" height="2" fill="#10b981"/>

  <!-- Resultat-banner emerald -->
  <rect x="30" y="92" width="240" height="32" fill="#ecfdf5" stroke="#10b981" stroke-width="0" rx="3"/>
  <rect x="30" y="92" width="3" height="32" fill="#10b981"/>
  <rect x="42" y="100" width="80" height="3" fill="#047857" rx="0.5"/>
  <rect x="42" y="110" width="200" height="2.5" fill="#065f46" rx="0.5"/>
  <rect x="42" y="116" width="180" height="2.5" fill="#065f46" rx="0.5"/>

  <!-- Sammanfattning -->
  <rect x="30" y="138" width="240" height="3" fill="#1f2937" rx="0.5"/>
  <rect x="30" y="146" width="220" height="3" fill="#1f2937" rx="0.5"/>
  <rect x="30" y="154" width="200" height="3" fill="#1f2937" rx="0.5"/>

  <!-- Sektion: Arbetslivserfarenhet med emerald-accent -->
  <rect x="30" y="178" width="3" height="9" fill="#10b981"/>
  <rect x="42" y="180" width="100" height="5" fill="#064e3b" rx="0.5"/>

  <!-- Job 1 -->
  <rect x="30" y="200" width="120" height="4" fill="#064e3b" rx="0.5"/>
  <rect x="220" y="201" width="50" height="3" fill="#64748b" rx="0.5"/>
  <rect x="30" y="210" width="80" height="3" fill="#10b981" rx="0.5"/>
  <circle cx="33" cy="224" r="2" fill="#10b981"/>
  <rect x="40" y="222" width="220" height="2.5" fill="#1f2937" rx="0.5"/>
  <circle cx="33" cy="232" r="2" fill="#10b981"/>
  <rect x="40" y="230" width="200" height="2.5" fill="#1f2937" rx="0.5"/>

  <line x1="30" y1="246" x2="270" y2="246" stroke="#f1f5f9"/>

  <!-- Job 2 -->
  <rect x="30" y="258" width="100" height="4" fill="#064e3b" rx="0.5"/>
  <rect x="220" y="259" width="50" height="3" fill="#64748b" rx="0.5"/>
  <rect x="30" y="268" width="70" height="3" fill="#10b981" rx="0.5"/>
  <circle cx="33" cy="282" r="2" fill="#10b981"/>
  <rect x="40" y="280" width="210" height="2.5" fill="#1f2937" rx="0.5"/>

  <!-- Sektion: Kassasystem -->
  <rect x="30" y="306" width="3" height="9" fill="#10b981"/>
  <rect x="42" y="308" width="120" height="5" fill="#064e3b" rx="0.5"/>
  <rect x="30" y="324" width="240" height="3" fill="#1f2937" rx="0.5"/>
  <rect x="30" y="332" width="200" height="3" fill="#1f2937" rx="0.5"/>

  <!-- Sektion: Utbildning -->
  <rect x="30" y="354" width="3" height="9" fill="#10b981"/>
  <rect x="42" y="356" width="80" height="5" fill="#064e3b" rx="0.5"/>
  <rect x="30" y="372" width="120" height="4" fill="#064e3b" rx="0.5"/>
  <rect x="220" y="373" width="50" height="3" fill="#64748b" rx="0.5"/>
</svg>
