<svg width="300" height="400" viewBox="0 0 300 400" fill="none" xmlns="http://www.w3.org/2000/svg">
  <!-- Executive Premium Template -->
  <defs>
    <linearGradient id="executiveGradient" x1="0%" y1="0%" x2="0%" y2="100%">
      <stop offset="0%" style="stop-color:#1e293b;stop-opacity:1" />
      <stop offset="100%" style="stop-color:#334155;stop-opacity:0.95" />
    </linearGradient>
    <linearGradient id="goldAccent" x1="0%" y1="0%" x2="100%" y2="0%">
      <stop offset="0%" style="stop-color:#f59e0b" />
      <stop offset="100%" style="stop-color:#d97706" />
    </linearGradient>
  </defs>
  
  <rect width="300" height="400" fill="white"/>
  
  <!-- Executive header with premium styling -->
  <rect x="0" y="0" width="300" height="90" fill="url(#executiveGradient)"/>
  
  <!-- Gold accent line -->
  <rect x="0" y="90" width="300" height="4" fill="url(#goldAccent)"/>
  
  <!-- Name and title in header -->
  <rect x="40" y="25" width="160" height="10" fill="white" rx="5"/>
  <rect x="40" y="45" width="100" height="5" fill="rgba(255,255,255,0.9)" rx="2"/>
  <rect x="40" y="58" width="120" height="5" fill="rgba(255,255,255,0.8)" rx="2"/>
  <rect x="40" y="68" width="90" height="4" fill="rgba(255,255,255,0.7)" rx="2"/>
  
  <!-- Contact info elegantly placed -->
  <rect x="200" y="35" width="60" height="3" fill="rgba(255,255,255,0.8)" rx="1"/>
  <rect x="200" y="42" width="55" height="3" fill="rgba(255,255,255,0.8)" rx="1"/>
  <rect x="200" y="49" width="65" height="3" fill="rgba(255,255,255,0.8)" rx="1"/>
  
  <!-- Executive Summary -->
  <rect x="40" y="115" width="100" height="6" fill="#1e293b" rx="3"/>
  <line x1="40" y1="130" x2="260" y2="130" stroke="#d97706" stroke-width="2"/>
  <rect x="40" y="140" width="200" height="3" fill="#374151" rx="1"/>
  <rect x="40" y="148" width="190" height="3" fill="#374151" rx="1"/>
  <rect x="40" y="156" width="180" height="3" fill="#374151" rx="1"/>
  <rect x="40" y="164" width="195" height="3" fill="#374151" rx="1"/>
  
  <!-- Professional Experience -->
  <rect x="40" y="185" width="120" height="6" fill="#1e293b" rx="3"/>
  <line x1="40" y1="200" x2="260" y2="200" stroke="#d97706" stroke-width="2"/>
  
  <!-- Senior Executive Role -->
  <rect x="40" y="210" width="110" height="5" fill="#1e293b" rx="2"/>
  <rect x="40" y="220" width="80" height="4" fill="#64748b" rx="2"/>
  <rect x="40" y="229" width="180" height="2" fill="#94a3b8" rx="1"/>
  <rect x="40" y="235" width="170" height="2" fill="#94a3b8" rx="1"/>
  <rect x="40" y="241" width="160" height="2" fill="#94a3b8" rx="1"/>
  <rect x="40" y="247" width="150" height="2" fill="#94a3b8" rx="1"/>
  
  <!-- Previous Leadership Role -->
  <rect x="40" y="260" width="105" height="5" fill="#1e293b" rx="2"/>
  <rect x="40" y="270" width="75" height="4" fill="#64748b" rx="2"/>
  <rect x="40" y="279" width="160" height="2" fill="#94a3b8" rx="1"/>
  <rect x="40" y="285" width="155" height="2" fill="#94a3b8" rx="1"/>
  <rect x="40" y="291" width="140" height="2" fill="#94a3b8" rx="1"/>
  
  <!-- Education & Credentials -->
  <rect x="40" y="310" width="90" height="6" fill="#1e293b" rx="3"/>
  <line x1="40" y1="325" x2="260" y2="325" stroke="#d97706" stroke-width="2"/>
  <rect x="40" y="335" width="130" height="5" fill="#1e293b" rx="2"/>
  <rect x="40" y="345" width="90" height="4" fill="#64748b" rx="2"/>
  
  <!-- Executive Skills -->
  <rect x="40" y="365" width="80" height="6" fill="#1e293b" rx="3"/>
  
  <!-- Premium decorative elements -->
  <rect x="20" y="115" width="3" height="50" fill="url(#goldAccent)" rx="1"/>
  <rect x="20" y="185" width="3" height="50" fill="url(#goldAccent)" rx="1"/>
  <rect x="20" y="310" width="3" height="30" fill="url(#goldAccent)" rx="1"/>
  
  <text x="150" y="390" text-anchor="middle" font-family="serif" font-size="12" fill="#1e293b" font-weight="bold">Executive Premium</text>
</svg>