<svg width="300" height="400" viewBox="0 0 300 400" fill="none" xmlns="http://www.w3.org/2000/svg">
  <!-- Executive Premium Template -->
  <defs>
    <linearGradient id="executiveGradient" x1="0%" y1="0%" x2="0%" y2="100%">
      <stop offset="0%" style="stop-color:#1e293b;stop-opacity:1" />
      <stop offset="100%" style="stop-color:#334155;stop-opacity:0.9" />
    </linearGradient>
  </defs>
  
  <rect width="300" height="400" fill="white"/>
  
  <!-- Premium header -->
  <rect x="0" y="0" width="300" height="100" fill="url(#executiveGradient)"/>
  <rect x="30" y="25" width="180" height="10" fill="white" rx="5"/>
  <rect x="30" y="45" width="120" height="6" fill="#e2e8f0" rx="3"/>
  <rect x="30" y="58" width="140" height="6" fill="#e2e8f0" rx="3"/>
  <rect x="30" y="71" width="100" height="6" fill="#e2e8f0" rx="3"/>
  
  <!-- Premium content with gold accents -->
  <rect x="20" y="120" width="4" height="40" fill="#d97706"/>
  <rect x="35" y="125" width="80" height="6" fill="#1e293b" rx="3"/>
  <rect x="35" y="140" width="220" height="4" fill="#475569" rx="2"/>
  <rect x="35" y="150" width="200" height="4" fill="#475569" rx="2"/>
  <rect x="35" y="160" width="210" height="4" fill="#475569" rx="2"/>
  
  <rect x="20" y="180" width="4" height="40" fill="#d97706"/>
  <rect x="35" y="185" width="90" height="6" fill="#1e293b" rx="3"/>
  <rect x="35" y="200" width="240" height="4" fill="#475569" rx="2"/>
  <rect x="35" y="210" width="220" height="4" fill="#475569" rx="2"/>
  <rect x="35" y="220" width="190" height="4" fill="#475569" rx="2"/>
  
  <rect x="20" y="240" width="4" height="40" fill="#d97706"/>
  <rect x="35" y="245" width="75" height="6" fill="#1e293b" rx="3"/>
  <rect x="35" y="260" width="180" height="4" fill="#475569" rx="2"/>
  <rect x="35" y="270" width="160" height="4" fill="#475569" rx="2"/>
  <rect x="35" y="280" width="170" height="4" fill="#475569" rx="2"/>
  
  <!-- Premium footer accent -->
  <rect x="0" y="380" width="300" height="20" fill="#f1f5f9"/>
  <rect x="20" y="385" width="60" height="2" fill="#d97706" rx="1"/>
  <rect x="90" y="385" width="40" height="2" fill="#d97706" rx="1"/>
  <rect x="140" y="385" width="50" height="2" fill="#d97706" rx="1"/>
  
  <text x="150" y="375" text-anchor="middle" font-family="serif" font-size="12" fill="#1e293b" font-weight="bold">Executive Premium</text>
</svg>