<svg width="300" height="400" viewBox="0 0 300 400" xmlns="http://www.w3.org/2000/svg">
  <rect width="300" height="400" fill="white"/>
  <rect x="20" y="20" width="260" height="40" fill="none" stroke="#1e293b" stroke-width="2"/>
  <rect x="30" y="30" width="120" height="8" fill="#1e293b" rx="2"/>
  <rect x="30" y="42" width="80" height="6" fill="#64748b" rx="2"/>
  
  <line x1="20" y1="80" x2="280" y2="80" stroke="#1e293b" stroke-width="1"/>
  <rect x="30" y="100" width="100" height="6" fill="#1e293b" rx="2"/>
  <rect x="30" y="115" width="240" height="4" fill="#64748b" rx="2"/>
  <rect x="30" y="125" width="220" height="4" fill="#64748b" rx="2"/>
  <rect x="30" y="135" width="200" height="4" fill="#64748b" rx="2"/>
  
  <line x1="20" y1="160" x2="280" y2="160" stroke="#1e293b" stroke-width="1"/>
  <rect x="30" y="180" width="100" height="6" fill="#1e293b" rx="2"/>
  <rect x="30" y="195" width="240" height="4" fill="#64748b" rx="2"/>
  <rect x="30" y="205" width="200" height="4" fill="#64748b" rx="2"/>
  <rect x="30" y="215" width="230" height="4" fill="#64748b" rx="2"/>
  
  <line x1="20" y1="240" x2="280" y2="240" stroke="#1e293b" stroke-width="1"/>
  <rect x="30" y="260" width="100" height="6" fill="#1e293b" rx="2"/>
  <rect x="30" y="275" width="150" height="4" fill="#64748b" rx="2"/>
  <rect x="30" y="285" width="120" height="4" fill="#64748b" rx="2"/>
  
  <!-- Clean template without branding text -->
</svg>