<svg width="300" height="400" viewBox="0 0 300 400" xmlns="http://www.w3.org/2000/svg">
  <defs>
    <linearGradient id="creativeGrad" x1="0%" y1="0%" x2="100%" y2="100%">
      <stop offset="0%" style="stop-color:#8b5cf6;stop-opacity:0.1" />
      <stop offset="100%" style="stop-color:#ec4899;stop-opacity:0.1" />
    </linearGradient>
  </defs>
  <rect width="300" height="400" fill="url(#creativeGrad)"/>
  
  <circle cx="70" cy="70" r="30" fill="#8b5cf6" opacity="0.2"/>
  <rect x="40" y="85" width="60" height="6" fill="#8b5cf6" rx="2"/>
  <rect x="40" y="95" width="45" height="4" fill="#a855f7" rx="2"/>
  
  <rect x="120" y="40" width="160" height="50" fill="white" rx="8"/>
  <rect x="130" y="55" width="120" height="8" fill="#1e293b" rx="2"/>
  <rect x="130" y="68" width="80" height="5" fill="#64748b" rx="2"/>
  
  <rect x="20" y="120" width="260" height="120" fill="white" rx="8"/>
  <rect x="30" y="135" width="100" height="6" fill="#ec4899" rx="2"/>
  <rect x="30" y="155" width="240" height="4" fill="#64748b" rx="2"/>
  <rect x="30" y="165" width="220" height="4" fill="#64748b" rx="2"/>
  <rect x="30" y="175" width="200" height="4" fill="#64748b" rx="2"/>
  
  <rect x="30" y="200" width="100" height="6" fill="#ec4899" rx="2"/>
  <rect x="30" y="220" width="180" height="4" fill="#64748b" rx="2"/>
  <rect x="30" y="230" width="160" height="4" fill="#64748b" rx="2"/>
  
  <rect x="20" y="260" width="120" height="100" fill="white" rx="8"/>
  <rect x="30" y="275" width="80" height="6" fill="#8b5cf6" rx="2"/>
  <rect x="30" y="290" width="100" height="4" fill="#64748b" rx="2"/>
  <rect x="30" y="300" width="90" height="4" fill="#64748b" rx="2"/>
  <rect x="30" y="320" width="85" height="4" fill="#a855f7" rx="2"/>
  <rect x="30" y="335" width="70" height="4" fill="#a855f7" rx="2"/>
  
  <rect x="160" y="260" width="120" height="100" fill="white" rx="8"/>
  <rect x="170" y="275" width="80" height="6" fill="#8b5cf6" rx="2"/>
  <rect x="170" y="295" width="90" height="4" fill="#64748b" rx="2"/>
  <rect x="170" y="305" width="100" height="4" fill="#64748b" rx="2"/>
  
  <!-- Clean template without branding text -->
</svg>
