<svg width="300" height="400" viewBox="0 0 300 400" fill="none" xmlns="http://www.w3.org/2000/svg">
  <rect width="300" height="400" fill="white"/>

  <!-- Mörkt grafit-band header -->
  <rect x="0" y="0" width="300" height="100" fill="#0f172a"/>
  <!-- Foto i hörnet med cyan ring -->
  <circle cx="245" cy="50" r="26" fill="#0e7490"/>
  <circle cx="245" cy="50" r="22" fill="#fff"/>
  <text x="245" y="58" text-anchor="middle" font-family="Inter,sans-serif" font-size="22" font-weight="700" fill="#0e7490">A</text>

  <rect x="20" y="32" width="140" height="11" fill="white" rx="1"/>
  <rect x="20" y="50" width="100" height="6" fill="#06b6d4" rx="1"/>
  <rect x="20" y="68" width="160" height="3" fill="#cbd5e1" rx="0.5"/>
  <rect x="20" y="76" width="120" height="3" fill="#cbd5e1" rx="0.5"/>

  <!-- Behörigheter-block -->
  <rect x="20" y="112" width="260" height="36" fill="#ecfeff" stroke="#06b6d4" stroke-width="1" rx="2"/>
  <rect x="28" y="120" width="80" height="5" fill="#0e7490" rx="0.5"/>
  <rect x="28" y="132" width="36" height="10" fill="white" stroke="#0e7490" stroke-width="0.5" rx="1"/>
  <rect x="68" y="132" width="36" height="10" fill="white" stroke="#0e7490" stroke-width="0.5" rx="1"/>
  <rect x="108" y="132" width="36" height="10" fill="white" stroke="#0e7490" stroke-width="0.5" rx="1"/>
  <rect x="148" y="132" width="36" height="10" fill="white" stroke="#0e7490" stroke-width="0.5" rx="1"/>
  <rect x="188" y="132" width="36" height="10" fill="white" stroke="#0e7490" stroke-width="0.5" rx="1"/>

  <!-- Sektion -->
  <rect x="20" y="166" width="120" height="6" fill="#0e7490" rx="1"/>
  <rect x="20" y="178" width="260" height="1.5" fill="#06b6d4"/>

  <!-- Tabellär experience-row -->
  <rect x="20" y="190" width="120" height="4" fill="#0f172a" rx="0.5"/>
  <rect x="20" y="200" width="80" height="3" fill="#475569" rx="0.5"/>
  <rect x="220" y="190" width="60" height="3" fill="#0e7490" rx="0.5"/>
  <rect x="220" y="198" width="60" height="3" fill="#0e7490" rx="0.5"/>
  <rect x="20" y="212" width="180" height="2.5" fill="#1f2937" rx="0.5"/>
  <rect x="20" y="220" width="160" height="2.5" fill="#1f2937" rx="0.5"/>

  <line x1="20" y1="234" x2="280" y2="234" stroke="#e5e7eb"/>

  <rect x="20" y="244" width="100" height="4" fill="#0f172a" rx="0.5"/>
  <rect x="20" y="254" width="80" height="3" fill="#475569" rx="0.5"/>
  <rect x="220" y="244" width="60" height="3" fill="#0e7490" rx="0.5"/>
  <rect x="220" y="252" width="60" height="3" fill="#0e7490" rx="0.5"/>
  <rect x="20" y="266" width="170" height="2.5" fill="#1f2937" rx="0.5"/>
  <rect x="20" y="274" width="150" height="2.5" fill="#1f2937" rx="0.5"/>

  <line x1="20" y1="288" x2="280" y2="288" stroke="#e5e7eb"/>

  <!-- WMS sektion -->
  <rect x="20" y="304" width="100" height="6" fill="#0e7490" rx="1"/>
  <rect x="20" y="318" width="260" height="3" fill="#1f2937" rx="0.5"/>
  <rect x="20" y="326" width="220" height="3" fill="#1f2937" rx="0.5"/>

  <!-- Utbildning -->
  <rect x="20" y="350" width="80" height="6" fill="#0e7490" rx="1"/>
  <rect x="20" y="366" width="120" height="3.5" fill="#0f172a" rx="0.5"/>
  <rect x="20" y="374" width="80" height="3" fill="#475569" rx="0.5"/>
</svg>
