<svg width="300" height="400" viewBox="0 0 300 400" fill="none" xmlns="http://www.w3.org/2000/svg">
  <rect width="300" height="400" fill="white"/>

  <!-- Header cyan accent -->
  <rect x="30" y="30" width="160" height="13" fill="#0c4a6e" rx="1"/>
  <rect x="30" y="50" width="100" height="5" fill="#0e7490" rx="1"/>
  <rect x="30" y="64" width="180" height="3" fill="#475569" rx="0.5"/>
  <rect x="30" y="78" width="240" height="3" fill="#0e7490"/>

  <!-- Behörigheter-block cyan -->
  <rect x="30" y="90" width="240" height="42" fill="#f0f9ff" stroke="#bae6fd" stroke-width="1" rx="3"/>
  <rect x="38" y="98" width="100" height="3" fill="#0c4a6e" rx="0.5"/>
  <text x="38" y="115" font-size="6" fill="#0e7490">✓</text>
  <rect x="46" y="111" width="80" height="2.5" fill="#1f2937" rx="0.5"/>
  <text x="38" y="123" font-size="6" fill="#0e7490">✓</text>
  <rect x="46" y="119" width="60" height="2.5" fill="#1f2937" rx="0.5"/>
  <text x="148" y="115" font-size="6" fill="#0e7490">✓</text>
  <rect x="156" y="111" width="80" height="2.5" fill="#1f2937" rx="0.5"/>
  <text x="148" y="123" font-size="6" fill="#0e7490">✓</text>
  <rect x="156" y="119" width="70" height="2.5" fill="#1f2937" rx="0.5"/>

  <!-- Sammanfattning -->
  <rect x="30" y="146" width="240" height="3" fill="#1f2937" rx="0.5"/>
  <rect x="30" y="154" width="220" height="3" fill="#1f2937" rx="0.5"/>

  <!-- Sektion: Yrkeserfarenhet -->
  <rect x="30" y="178" width="120" height="4" fill="#0c4a6e" rx="0.5"/>
  <rect x="30" y="188" width="240" height="2" fill="#0e7490"/>

  <!-- Job 1 -->
  <rect x="30" y="200" width="120" height="4" fill="#0c4a6e" rx="0.5"/>
  <rect x="220" y="201" width="50" height="3" fill="#0e7490" rx="0.5"/>
  <rect x="30" y="210" width="80" height="3" fill="#475569" rx="0.5"/>
  <text x="30" y="226" font-size="7" fill="#0e7490">▸</text>
  <rect x="40" y="223" width="220" height="2.5" fill="#1f2937" rx="0.5"/>
  <text x="30" y="234" font-size="7" fill="#0e7490">▸</text>
  <rect x="40" y="231" width="200" height="2.5" fill="#1f2937" rx="0.5"/>

  <!-- Job 2 -->
  <rect x="30" y="254" width="100" height="4" fill="#0c4a6e" rx="0.5"/>
  <rect x="220" y="255" width="50" height="3" fill="#0e7490" rx="0.5"/>
  <rect x="30" y="264" width="70" height="3" fill="#475569" rx="0.5"/>
  <text x="30" y="280" font-size="7" fill="#0e7490">▸</text>
  <rect x="40" y="277" width="210" height="2.5" fill="#1f2937" rx="0.5"/>

  <!-- Sektion: Utbildning -->
  <rect x="30" y="302" width="60" height="4" fill="#0c4a6e" rx="0.5"/>
  <rect x="30" y="312" width="240" height="2" fill="#0e7490"/>

  <rect x="30" y="324" width="120" height="4" fill="#0c4a6e" rx="0.5"/>
  <rect x="220" y="325" width="50" height="3" fill="#0e7490" rx="0.5"/>
  <rect x="30" y="334" width="80" height="3" fill="#475569" rx="0.5"/>

  <!-- Sektion: WMS-system -->
  <rect x="30" y="358" width="100" height="4" fill="#0c4a6e" rx="0.5"/>
  <rect x="30" y="368" width="240" height="2" fill="#0e7490"/>
  <rect x="30" y="380" width="220" height="3" fill="#1f2937" rx="0.5"/>
</svg>
