<svg width="300" height="400" viewBox="0 0 300 400" xmlns="http://www.w3.org/2000/svg">
  <rect width="300" height="400" fill="white"/>
  
  <rect x="50" y="40" width="200" height="8" fill="#1e293b" rx="2"/>
  <rect x="50" y="55" width="120" height="4" fill="#64748b" rx="2"/>
  
  <rect x="50" y="100" width="200" height="2" fill="#e2e8f0"/>
  
  <rect x="50" y="130" width="80" height="6" fill="#1e293b" rx="2"/>
  <rect x="50" y="150" width="180" height="3" fill="#64748b" rx="1"/>
  <rect x="50" y="160" width="160" height="3" fill="#64748b" rx="1"/>
  <rect x="50" y="170" width="170" height="3" fill="#64748b" rx="1"/>
  
  <rect x="50" y="200" width="200" height="1" fill="#e2e8f0"/>
  
  <rect x="50" y="230" width="80" height="6" fill="#1e293b" rx="2"/>
  <rect x="50" y="250" width="140" height="3" fill="#64748b" rx="1"/>
  <rect x="50" y="260" width="120" height="3" fill="#64748b" rx="1"/>
  
  <rect x="50" y="290" width="200" height="1" fill="#e2e8f0"/>
  
  <rect x="50" y="320" width="80" height="6" fill="#1e293b" rx="2"/>
  <rect x="50" y="340" width="100" height="3" fill="#64748b" rx="1"/>
  <rect x="50" y="350" width="90" height="3" fill="#64748b" rx="1"/>
  
  <text x="150" y="395" text-anchor="middle" font-family="Arial, sans-serif" font-size="10" fill="#64748b">Minimalistisk</text>
</svg>