<svg width="300" height="400" viewBox="0 0 300 400" xmlns="http://www.w3.org/2000/svg">
  <rect width="300" height="400" fill="#f8fafc"/>
  <rect x="20" y="20" width="100" height="100" fill="#3b82f6" rx="4"/>
  <rect x="30" y="30" width="80" height="6" fill="white" rx="2"/>
  <rect x="30" y="40" width="60" height="4" fill="#dbeafe" rx="2"/>
  <rect x="30" y="60" width="70" height="3" fill="#dbeafe" rx="1"/>
  <rect x="30" y="68" width="75" height="3" fill="#dbeafe" rx="1"/>
  
  <rect x="140" y="20" width="140" height="80" fill="white" rx="4"/>
  <rect x="150" y="35" width="120" height="8" fill="#1e293b" rx="2"/>
  <rect x="150" y="50" width="80" height="5" fill="#64748b" rx="2"/>
  <rect x="150" y="65" width="100" height="4" fill="#64748b" rx="2"/>
  <rect x="150" y="75" width="90" height="4" fill="#64748b" rx="2"/>
  
  <rect x="20" y="140" width="260" height="120" fill="white" rx="4"/>
  <rect x="30" y="155" width="100" height="6" fill="#3b82f6" rx="2"/>
  <rect x="30" y="175" width="240" height="4" fill="#64748b" rx="2"/>
  <rect x="30" y="185" width="220" height="4" fill="#64748b" rx="2"/>
  <rect x="30" y="195" width="200" height="4" fill="#64748b" rx="2"/>
  
  <rect x="30" y="220" width="100" height="6" fill="#3b82f6" rx="2"/>
  <rect x="30" y="235" width="180" height="4" fill="#64748b" rx="2"/>
  <rect x="30" y="245" width="160" height="4" fill="#64748b" rx="2"/>
  
  <rect x="20" y="280" width="260" height="80" fill="#f1f5f9" rx="4"/>
  <rect x="30" y="295" width="80" height="6" fill="#3b82f6" rx="2"/>
  <rect x="30" y="310" width="120" height="4" fill="#64748b" rx="2"/>
  <rect x="30" y="320" width="100" height="4" fill="#64748b" rx="2"/>
  <rect x="30" y="330" width="90" height="4" fill="#64748b" rx="2"/>
  
  <!-- Clean template without branding text -->
</svg>
