<svg width="300" height="400" viewBox="0 0 300 400" xmlns="http://www.w3.org/2000/svg">
  <rect width="300" height="400" fill="#f8fafc"/>
  <rect x="20" y="20" width="260" height="60" fill="#1e293b" rx="4"/>
  <rect x="30" y="35" width="120" height="8" fill="white" rx="2"/>
  <rect x="30" y="50" width="80" height="6" fill="#94a3b8" rx="2"/>
  
  <rect x="20" y="100" width="120" height="280" fill="#f1f5f9" rx="4"/>
  <rect x="30" y="120" width="100" height="6" fill="#64748b" rx="2"/>
  <rect x="30" y="135" width="80" height="4" fill="#94a3b8" rx="2"/>
  <rect x="30" y="145" width="90" height="4" fill="#94a3b8" rx="2"/>
  
  <rect x="30" y="170" width="100" height="6" fill="#64748b" rx="2"/>
  <rect x="30" y="185" width="70" height="4" fill="#94a3b8" rx="2"/>
  <rect x="30" y="195" width="85" height="4" fill="#94a3b8" rx="2"/>
  
  <rect x="160" y="100" width="120" height="280" fill="white" rx="4"/>
  <rect x="170" y="120" width="100" height="8" fill="#1e293b" rx="2"/>
  <rect x="170" y="140" width="90" height="4" fill="#64748b" rx="2"/>
  <rect x="170" y="150" width="95" height="4" fill="#64748b" rx="2"/>
  <rect x="170" y="160" width="80" height="4" fill="#64748b" rx="2"/>
  
  <rect x="170" y="185" width="100" height="8" fill="#1e293b" rx="2"/>
  <rect x="170" y="205" width="90" height="4" fill="#64748b" rx="2"/>
  <rect x="170" y="215" width="95" height="4" fill="#64748b" rx="2"/>
  <rect x="170" y="225" width="70" height="4" fill="#64748b" rx="2"/>
  
  <!-- Clean template without branding text -->
</svg>