<svg width="300" height="400" viewBox="0 0 300 400" fill="none" xmlns="http://www.w3.org/2000/svg">
  <!-- Modern Minimal Template -->
  <rect width="300" height="400" fill="white"/>
  
  <!-- Header -->
  <rect x="30" y="30" width="240" height="60" fill="#f8fafc"/>
  <rect x="45" y="45" width="120" height="6" fill="#1e293b" rx="3"/>
  <rect x="45" y="60" width="80" height="4" fill="#64748b" rx="2"/>
  <rect x="45" y="70" width="100" height="4" fill="#64748b" rx="2"/>
  
  <!-- Content Blocks -->
  <rect x="30" y="110" width="60" height="4" fill="#e11d48" rx="2"/>
  <rect x="30" y="125" width="200" height="3" fill="#374151" rx="1"/>
  <rect x="30" y="135" width="180" height="3" fill="#374151" rx="1"/>
  <rect x="30" y="145" width="190" height="3" fill="#374151" rx="1"/>
  
  <rect x="30" y="170" width="70" height="4" fill="#e11d48" rx="2"/>
  <rect x="30" y="185" width="220" height="3" fill="#374151" rx="1"/>
  <rect x="30" y="195" width="200" height="3" fill="#374151" rx="1"/>
  
  <rect x="30" y="220" width="65" height="4" fill="#e11d48" rx="2"/>
  <rect x="30" y="235" width="180" height="3" fill="#374151" rx="1"/>
  <rect x="30" y="245" width="160" height="3" fill="#374151" rx="1"/>
  <rect x="30" y="255" width="170" height="3" fill="#374151" rx="1"/>
  
  <!-- Clean lines -->
  <line x1="30" y1="160" x2="270" y2="160" stroke="#e2e8f0" stroke-width="1"/>
  <line x1="30" y1="210" x2="270" y2="210" stroke="#e2e8f0" stroke-width="1"/>
  
  <!-- Clean template without branding text -->
</svg>