<svg width="300" height="400" viewBox="0 0 300 400" fill="none" xmlns="http://www.w3.org/2000/svg">
  <rect width="300" height="400" fill="white"/>

  <!-- Header navy -->
  <rect x="30" y="34" width="160" height="13" fill="#0f172a" rx="1"/>
  <rect x="30" y="54" width="100" height="5" fill="#1e3a8a" rx="1"/>
  <rect x="30" y="68" width="180" height="3" fill="#475569" rx="0.5"/>
  <rect x="30" y="86" width="240" height="2" fill="#1e3a8a"/>

  <!-- Sammanfattning -->
  <rect x="30" y="102" width="240" height="3" fill="#1f2937" rx="0.5"/>
  <rect x="30" y="110" width="220" height="3" fill="#1f2937" rx="0.5"/>
  <rect x="30" y="118" width="200" height="3" fill="#1f2937" rx="0.5"/>
  <rect x="30" y="126" width="180" height="3" fill="#1f2937" rx="0.5"/>

  <!-- Sektion: Yrkeserfarenhet -->
  <rect x="30" y="148" width="120" height="3" fill="#0f172a" rx="0.5"/>
  <line x1="30" y1="158" x2="270" y2="158" stroke="#1e3a8a" stroke-width="1"/>

  <!-- Job 1 med § symbol -->
  <rect x="30" y="170" width="130" height="4" fill="#0f172a" rx="0.5"/>
  <rect x="220" y="171" width="50" height="3" fill="#475569" rx="0.5"/>
  <rect x="30" y="180" width="80" height="3" fill="#1e3a8a" rx="0.5"/>
  <text x="30" y="196" font-size="9" fill="#1e3a8a" font-weight="700">§</text>
  <rect x="40" y="194" width="220" height="2.5" fill="#1f2937" rx="0.5"/>
  <text x="30" y="204" font-size="9" fill="#1e3a8a" font-weight="700">§</text>
  <rect x="40" y="202" width="200" height="2.5" fill="#1f2937" rx="0.5"/>
  <text x="30" y="212" font-size="9" fill="#1e3a8a" font-weight="700">§</text>
  <rect x="40" y="210" width="180" height="2.5" fill="#1f2937" rx="0.5"/>

  <!-- Job 2 -->
  <rect x="30" y="232" width="110" height="4" fill="#0f172a" rx="0.5"/>
  <rect x="220" y="233" width="50" height="3" fill="#475569" rx="0.5"/>
  <rect x="30" y="242" width="70" height="3" fill="#1e3a8a" rx="0.5"/>
  <text x="30" y="258" font-size="9" fill="#1e3a8a" font-weight="700">§</text>
  <rect x="40" y="256" width="210" height="2.5" fill="#1f2937" rx="0.5"/>
  <text x="30" y="266" font-size="9" fill="#1e3a8a" font-weight="700">§</text>
  <rect x="40" y="264" width="190" height="2.5" fill="#1f2937" rx="0.5"/>

  <!-- Sektion: Utbildning -->
  <rect x="30" y="290" width="60" height="3" fill="#0f172a" rx="0.5"/>
  <line x1="30" y1="300" x2="270" y2="300" stroke="#1e3a8a" stroke-width="1"/>
  <rect x="30" y="312" width="130" height="4" fill="#0f172a" rx="0.5"/>
  <rect x="220" y="313" width="50" height="3" fill="#475569" rx="0.5"/>
  <rect x="30" y="322" width="100" height="3" fill="#475569" rx="0.5"/>

  <!-- Sektion: Lagstiftning -->
  <rect x="30" y="346" width="120" height="3" fill="#0f172a" rx="0.5"/>
  <line x1="30" y1="356" x2="270" y2="356" stroke="#1e3a8a" stroke-width="1"/>
  <rect x="30" y="368" width="240" height="3" fill="#1f2937" rx="0.5"/>
  <rect x="30" y="376" width="200" height="3" fill="#1f2937" rx="0.5"/>
</svg>
