<svg width="300" height="400" viewBox="0 0 300 400" fill="none" xmlns="http://www.w3.org/2000/svg">
  <rect width="300" height="400" fill="white"/>

  <!-- Foto med gradient ring -->
  <defs>
    <linearGradient id="npGrad" x1="0" x2="1" y1="0" y2="1">
      <stop offset="0%" stop-color="#f97316"/>
      <stop offset="100%" stop-color="#db2777"/>
    </linearGradient>
  </defs>
  <circle cx="48" cy="50" r="26" fill="url(#npGrad)"/>
  <circle cx="48" cy="50" r="22" fill="white"/>
  <text x="48" y="58" text-anchor="middle" font-family="Georgia,serif" font-size="22" font-weight="700" fill="#0f172a">A</text>

  <!-- Namn med gradient text-effekt (visuell approximation) -->
  <rect x="90" y="38" width="180" height="14" fill="#0f172a" rx="1"/>
  <rect x="90" y="58" width="120" height="6" fill="#db2777" rx="1"/>
  <rect x="90" y="74" width="100" height="2.5" fill="#475569" rx="0.5"/>

  <!-- Personlig profil-block -->
  <rect x="20" y="100" width="260" height="44" fill="#fff7ed" rx="2"/>
  <rect x="20" y="100" width="3" height="44" fill="#f97316"/>
  <rect x="32" y="110" width="80" height="4" fill="#9a3412" rx="0.5"/>
  <rect x="32" y="122" width="240" height="3" fill="#475569" rx="0.5"/>
  <rect x="32" y="130" width="220" height="3" fill="#475569" rx="0.5"/>
  <rect x="32" y="138" width="200" height="3" fill="#475569" rx="0.5"/>

  <!-- Två-kolumn body -->
  <!-- Vänster huvud -->
  <rect x="20" y="162" width="120" height="6" fill="#0f172a" rx="1"/>
  <rect x="20" y="174" width="40" height="2" fill="#f97316"/>

  <rect x="20" y="186" width="120" height="3.5" fill="#0f172a" rx="0.5"/>
  <rect x="20" y="194" width="80" height="3" fill="#f97316" rx="0.5"/>
  <rect x="155" y="186" width="35" height="3" fill="#475569" rx="0.5"/>
  <circle cx="22" cy="208" r="1.5" fill="#f97316"/>
  <rect x="28" y="206" width="160" height="2.5" fill="#1f2937" rx="0.5"/>
  <circle cx="22" cy="216" r="1.5" fill="#f97316"/>
  <rect x="28" y="214" width="155" height="2.5" fill="#1f2937" rx="0.5"/>

  <line x1="20" y1="232" x2="190" y2="232" stroke="#fed7aa"/>

  <rect x="20" y="244" width="100" height="3.5" fill="#0f172a" rx="0.5"/>
  <rect x="20" y="252" width="70" height="3" fill="#f97316" rx="0.5"/>
  <circle cx="22" cy="266" r="1.5" fill="#f97316"/>
  <rect x="28" y="264" width="160" height="2.5" fill="#1f2937" rx="0.5"/>
  <circle cx="22" cy="274" r="1.5" fill="#f97316"/>
  <rect x="28" y="272" width="150" height="2.5" fill="#1f2937" rx="0.5"/>

  <!-- Höger sidopanel: snabbfakta -->
  <rect x="200" y="162" width="80" height="180" fill="#fff7ed" rx="2"/>
  <rect x="208" y="172" width="60" height="5" fill="#9a3412" rx="0.5"/>
  <rect x="208" y="186" width="60" height="2.5" fill="#1f2937" rx="0.5"/>
  <rect x="208" y="194" width="50" height="2.5" fill="#1f2937" rx="0.5"/>
  <rect x="208" y="208" width="60" height="5" fill="#9a3412" rx="0.5"/>
  <rect x="208" y="222" width="60" height="2.5" fill="#1f2937" rx="0.5"/>
  <rect x="208" y="230" width="55" height="2.5" fill="#1f2937" rx="0.5"/>
  <rect x="208" y="244" width="60" height="5" fill="#9a3412" rx="0.5"/>
  <rect x="208" y="258" width="60" height="2.5" fill="#1f2937" rx="0.5"/>
  <rect x="208" y="266" width="50" height="2.5" fill="#1f2937" rx="0.5"/>

  <!-- Utbildning -->
  <rect x="20" y="312" width="80" height="6" fill="#0f172a" rx="1"/>
  <rect x="20" y="324" width="40" height="2" fill="#f97316"/>
  <rect x="20" y="336" width="120" height="3.5" fill="#0f172a" rx="0.5"/>
  <rect x="20" y="344" width="80" height="3" fill="#475569" rx="0.5"/>
</svg>
