<svg width="300" height="400" viewBox="0 0 300 400" fill="none" xmlns="http://www.w3.org/2000/svg">
  <!-- Norrsken - ren minimal med subtila orange-DNA-detaljer -->
  <rect width="300" height="400" fill="white"/>

  <!-- Header -->
  <rect x="30" y="34" width="140" height="11" fill="#0f172a" rx="1"/>
  <rect x="30" y="52" width="100" height="5" fill="#475569" rx="1"/>
  <rect x="30" y="66" width="180" height="3" fill="#64748b" rx="0.5"/>
  <line x1="30" y1="82" x2="270" y2="82" stroke="#e5e7eb" stroke-width="1"/>

  <!-- Sammanfattning -->
  <rect x="30" y="96" width="240" height="3" fill="#1f2937" rx="0.5"/>
  <rect x="30" y="104" width="230" height="3" fill="#1f2937" rx="0.5"/>
  <rect x="30" y="112" width="200" height="3" fill="#1f2937" rx="0.5"/>

  <!-- Section 1: Erfarenhet (med orange accent vänster) -->
  <rect x="30" y="138" width="3" height="9" fill="#f97316"/>
  <rect x="40" y="139" width="100" height="5" fill="#0f172a" rx="0.5"/>

  <!-- Job 1 -->
  <rect x="30" y="160" width="120" height="4" fill="#0f172a" rx="0.5"/>
  <rect x="220" y="161" width="50" height="3" fill="#64748b" rx="0.5"/>
  <rect x="30" y="170" width="90" height="3" fill="#475569" rx="0.5"/>
  <circle cx="33" cy="183" r="2" fill="#f97316"/>
  <rect x="40" y="181" width="220" height="2.5" fill="#1f2937" rx="0.5"/>
  <circle cx="33" cy="191" r="2" fill="#f97316"/>
  <rect x="40" y="189" width="200" height="2.5" fill="#1f2937" rx="0.5"/>
  <circle cx="33" cy="199" r="2" fill="#f97316"/>
  <rect x="40" y="197" width="210" height="2.5" fill="#1f2937" rx="0.5"/>
  <line x1="30" y1="212" x2="270" y2="212" stroke="#f1f5f9" stroke-width="1"/>

  <!-- Job 2 -->
  <rect x="30" y="222" width="100" height="4" fill="#0f172a" rx="0.5"/>
  <rect x="220" y="223" width="50" height="3" fill="#64748b" rx="0.5"/>
  <rect x="30" y="232" width="80" height="3" fill="#475569" rx="0.5"/>
  <circle cx="33" cy="245" r="2" fill="#f97316"/>
  <rect x="40" y="243" width="210" height="2.5" fill="#1f2937" rx="0.5"/>
  <circle cx="33" cy="253" r="2" fill="#f97316"/>
  <rect x="40" y="251" width="190" height="2.5" fill="#1f2937" rx="0.5"/>

  <!-- Section 2: Utbildning -->
  <rect x="30" y="280" width="3" height="9" fill="#f97316"/>
  <rect x="40" y="281" width="80" height="5" fill="#0f172a" rx="0.5"/>

  <rect x="30" y="302" width="110" height="4" fill="#0f172a" rx="0.5"/>
  <rect x="220" y="303" width="50" height="3" fill="#64748b" rx="0.5"/>
  <rect x="30" y="312" width="90" height="3" fill="#475569" rx="0.5"/>

  <!-- Section 3: Kompetenser -->
  <rect x="30" y="340" width="3" height="9" fill="#f97316"/>
  <rect x="40" y="341" width="90" height="5" fill="#0f172a" rx="0.5"/>

  <rect x="30" y="362" width="240" height="3" fill="#1f2937" rx="0.5"/>
  <rect x="30" y="370" width="220" height="3" fill="#1f2937" rx="0.5"/>

  <!-- Referenser -->
  <line x1="30" y1="386" x2="270" y2="386" stroke="#e5e7eb" stroke-width="0.5"/>
</svg>
