<svg width="300" height="400" viewBox="0 0 300 400" fill="none" xmlns="http://www.w3.org/2000/svg">
  <!-- Platinum Executive Template - Updated Version -->
  <defs>
    <!-- Premium Navy Gradient -->
    <linearGradient id="executiveHeader" x1="0%" y1="0%" x2="0%" y2="100%">
      <stop offset="0%" style="stop-color:#1a365d;stop-opacity:1" />
      <stop offset="50%" style="stop-color:#2d5a87;stop-opacity:0.98" />
      <stop offset="100%" style="stop-color:#1e3a5f;stop-opacity:1" />
    </linearGradient>
    
    <!-- Gold Premium Accent -->
    <linearGradient id="goldAccent" x1="0%" y1="0%" x2="100%" y2="0%">
      <stop offset="0%" style="stop-color:#f6ad55" />
      <stop offset="50%" style="stop-color:#ed8936" />
      <stop offset="100%" style="stop-color:#f6ad55" />
    </linearGradient>
    
    <!-- Enhanced Profile Photo Shadow -->
    <filter id="photoShadow" x="-50%" y="-50%" width="200%" height="200%">
      <feDropShadow dx="0" dy="4" stdDeviation="6" flood-color="#1a365d" flood-opacity="0.3"/>
    </filter>
    
    <!-- LinkedIn Blue -->
    <linearGradient id="linkedInBlue">
      <stop offset="0%" style="stop-color:#0077b5" />
      <stop offset="100%" style="stop-color:#005885" />
    </linearGradient>

    <!-- Profile Photo Pattern -->
    <pattern id="profilePattern" patternUnits="userSpaceOnUse" width="4" height="4">
      <rect width="4" height="4" fill="rgba(255,255,255,0.05)"/>
      <circle cx="2" cy="2" r="0.5" fill="rgba(255,255,255,0.1)"/>
    </pattern>
  </defs>
  
  <!-- Clean White Background -->
  <rect width="300" height="400" fill="white"/>
  
  <!-- Executive Header Section with Rounded Corners -->
  <rect x="0" y="0" width="300" height="135" fill="url(#executiveHeader)" rx="8" ry="8"/>
  <rect x="0" y="8" width="300" height="127" fill="url(#executiveHeader)"/>
  
  <!-- Gold Premium Accent Line -->
  <rect x="0" y="135" width="300" height="3" fill="url(#goldAccent)"/>
  
  <!-- Enhanced Profile Photo with Better Visualization -->
  <g id="profile-photo-area">
    <!-- Outer ring for premium effect -->
    <circle cx="50" cy="67" r="38" fill="none" stroke="rgba(242,243,244,0.4)" stroke-width="1" filter="url(#photoShadow)"/>
    <!-- Main profile photo circle -->
    <circle cx="50" cy="67" r="35" fill="url(#profilePattern)" stroke="rgba(242,243,244,0.9)" stroke-width="3" filter="url(#photoShadow)"/>
    
    <!-- Professional photo indicator -->
    <g opacity="0.8">
      <!-- Head shape -->
      <circle cx="50" cy="58" r="10" fill="rgba(255,255,255,0.4)"/>
      <!-- Body/shoulders -->
      <ellipse cx="50" cy="82" rx="16" ry="12" fill="rgba(255,255,255,0.4)"/>
      <!-- Subtle business attire indication -->
      <rect x="42" y="70" width="16" height="8" fill="rgba(255,255,255,0.3)" rx="2"/>
    </g>
  </g>
  
  <!-- Executive Name and Summary Area (No Title) -->
  <g id="name-summary-area">
    <!-- Executive Name -->
    <rect x="95" y="35" width="130" height="10" fill="white" rx="2"/>
    <rect x="95" y="48" width="110" height="8" fill="rgba(255,255,255,0.95)" rx="2"/>
    
    <!-- Summary Lines (More Space) -->
    <rect x="95" y="65" width="140" height="4" fill="rgba(255,255,255,0.85)" rx="2"/>
    <rect x="95" y="72" width="135" height="4" fill="rgba(255,255,255,0.8)" rx="2"/>
    <rect x="95" y="79" width="125" height="4" fill="rgba(255,255,255,0.75)" rx="2"/>
    <rect x="95" y="86" width="130" height="4" fill="rgba(255,255,255,0.7)" rx="2"/>
  </g>
  
  <!-- Premium Contact Section with LinkedIn -->
  <g id="contact-linkedin-area">
    <!-- Contact Background -->
    <rect x="250" y="30" width="45" height="85" fill="rgba(255,255,255,0.1)" rx="6"/>
    
    <!-- Contact Items -->
    <rect x="254" y="38" width="37" height="3" fill="rgba(255,255,255,0.9)" rx="1"/>
    <rect x="254" y="45" width="32" height="3" fill="rgba(255,255,255,0.85)" rx="1"/>
    <rect x="254" y="52" width="35" height="3" fill="rgba(255,255,255,0.85)" rx="1"/>
    
    <!-- LinkedIn Integration -->
    <rect x="254" y="65" width="37" height="10" fill="rgba(0,119,181,0.2)" rx="5"/>
    <!-- LinkedIn Icon -->
    <rect x="256" y="67" width="5" height="5" fill="url(#linkedInBlue)" rx="1"/>
    <!-- LinkedIn URL -->
    <rect x="263" y="69" width="20" height="2" fill="url(#linkedInBlue)" rx="1"/>
  </g>
  
  <!-- Professional Experience Section (No Gold Underline) -->
  <g id="experience-section">
    <rect x="25" y="155" width="130" height="8" fill="#1a365d" rx="4"/>
    
    <!-- Executive Position 1 -->
    <rect x="25" y="175" width="110" height="6" fill="#1a365d" rx="3"/>
    <rect x="25" y="185" width="85" height="4" fill="#718096" rx="2"/>
    <rect x="25" y="192" width="190" height="2" fill="#a0aec0" rx="1"/>
    <rect x="25" y="196" width="180" height="2" fill="#a0aec0" rx="1"/>
    <rect x="25" y="200" width="170" height="2" fill="#a0aec0" rx="1"/>
    
    <!-- Executive Position 2 -->
    <rect x="25" y="215" width="100" height="6" fill="#1a365d" rx="3"/>
    <rect x="25" y="225" width="80" height="4" fill="#718096" rx="2"/>
    <rect x="25" y="232" width="160" height="2" fill="#a0aec0" rx="1"/>
    <rect x="25" y="236" width="150" height="2" fill="#a0aec0" rx="1"/>
  </g>
  
  <!-- Education Section (No Gold Underline) -->
  <g id="education-section">
    <rect x="25" y="255" width="80" height="8" fill="#1a365d" rx="4"/>
    
    <!-- Executive Education -->
    <rect x="25" y="275" width="120" height="5" fill="#1a365d" rx="2"/>
    <rect x="25" y="284" width="100" height="4" fill="#718096" rx="2"/>
    <rect x="25" y="291" width="85" height="3" fill="#a0aec0" rx="1"/>
  </g>
  
  <!-- Three Column Skills Layout -->
  <g id="skills-columns">
    <rect x="25" y="310" width="100" height="8" fill="#1a365d" rx="4"/>
    
    <!-- Technical Skills Column -->
    <g id="technical-column">
      <rect x="25" y="330" width="80" height="5" fill="#1a365d" rx="2" opacity="0.8"/>
      <rect x="27" y="340" width="35" height="4" fill="rgba(26,54,93,0.1)" stroke="rgba(246,173,85,0.3)" stroke-width="0.5" rx="2"/>
      <rect x="27" y="347" width="40" height="4" fill="rgba(26,54,93,0.1)" stroke="rgba(246,173,85,0.3)" stroke-width="0.5" rx="2"/>
      <rect x="27" y="354" width="32" height="4" fill="rgba(26,54,93,0.1)" stroke="rgba(246,173,85,0.3)" stroke-width="0.5" rx="2"/>
    </g>
    
    <!-- Soft Skills Column -->
    <g id="soft-column">
      <rect x="115" y="330" width="75" height="5" fill="#1a365d" rx="2" opacity="0.8"/>
      <rect x="117" y="340" width="38" height="4" fill="rgba(26,54,93,0.1)" stroke="rgba(246,173,85,0.3)" stroke-width="0.5" rx="2"/>
      <rect x="117" y="347" width="35" height="4" fill="rgba(26,54,93,0.1)" stroke="rgba(246,173,85,0.3)" stroke-width="0.5" rx="2"/>
      <rect x="117" y="354" width="42" height="4" fill="rgba(26,54,93,0.1)" stroke="rgba(246,173,85,0.3)" stroke-width="0.5" rx="2"/>
    </g>
    
    <!-- Languages Column -->
    <g id="language-column">
      <rect x="205" y="330" width="50" height="5" fill="#1a365d" rx="2" opacity="0.8"/>
      <!-- Language items with level indicators -->
      <rect x="207" y="340" width="45" height="4" fill="rgba(26,54,93,0.1)" stroke="rgba(246,173,85,0.3)" stroke-width="0.5" rx="2"/>
      <rect x="230" y="341" width="15" height="2" fill="url(#goldAccent)" rx="1"/>
      
      <rect x="207" y="347" width="45" height="4" fill="rgba(26,54,93,0.1)" stroke="rgba(246,173,85,0.3)" stroke-width="0.5" rx="2"/>
      <rect x="230" y="348" width="12" height="2" fill="url(#goldAccent)" rx="1"/>
      
      <rect x="207" y="354" width="45" height="4" fill="rgba(26,54,93,0.1)" stroke="rgba(246,173,85,0.3)" stroke-width="0.5" rx="2"/>
      <rect x="230" y="355" width="10" height="2" fill="url(#goldAccent)" rx="1"/>
    </g>
  </g>
  
  <!-- Clean Footer -->
  <g id="clean-footer">
    <!-- Professional reference note -->
    <rect x="110" y="385" width="80" height="3" fill="#a0aec0" rx="1"/>
  </g>
  
  <!-- Subtle Premium Details -->
  <g id="premium-details" opacity="0.02">
    <circle cx="280" cy="25" r="6" fill="#f6ad55"/>
    <rect x="15" y="140" width="2" height="15" fill="#f6ad55" rx="1"/>
  </g>
</svg>