<svg width="300" height="400" viewBox="0 0 300 400" fill="none" xmlns="http://www.w3.org/2000/svg">
  <!-- Servering - sidopanel champagne + main för restaurang -->
  <rect width="300" height="400" fill="white"/>

  <!-- Sidopanel champagne -->
  <rect x="0" y="0" width="100" height="400" fill="#c9a37b"/>

  <!-- Foto cirkel -->
  <circle cx="50" cy="44" r="22" fill="white" opacity="0.95"/>
  <circle cx="50" cy="44" r="20" fill="#cbd5e1"/>

  <!-- Sidopanel: Kontakt -->
  <rect x="14" y="82" width="50" height="3" fill="white" opacity="0.95"/>
  <line x1="14" y1="91" x2="88" y2="91" stroke="white" opacity="0.45"/>
  <rect x="14" y="98" width="78" height="2.5" fill="white" opacity="0.92"/>
  <rect x="14" y="105" width="60" height="2.5" fill="white" opacity="0.92"/>
  <rect x="14" y="112" width="68" height="2.5" fill="white" opacity="0.92"/>

  <!-- Sidopanel: Språk -->
  <rect x="14" y="134" width="40" height="3" fill="white" opacity="0.95"/>
  <line x1="14" y1="143" x2="88" y2="143" stroke="white" opacity="0.45"/>
  <rect x="14" y="151" width="32" height="2.5" fill="white" opacity="0.95"/>
  <rect x="60" y="151" width="28" height="2.5" fill="white" opacity="0.78"/>
  <rect x="14" y="161" width="38" height="2.5" fill="white" opacity="0.95"/>
  <rect x="60" y="161" width="28" height="2.5" fill="white" opacity="0.78"/>
  <rect x="14" y="171" width="36" height="2.5" fill="white" opacity="0.95"/>
  <rect x="60" y="171" width="28" height="2.5" fill="white" opacity="0.78"/>

  <!-- Sidopanel: Diplom -->
  <rect x="14" y="194" width="60" height="3" fill="white" opacity="0.95"/>
  <line x1="14" y1="203" x2="88" y2="203" stroke="white" opacity="0.45"/>
  <rect x="14" y="211" width="78" height="2.5" fill="white" opacity="0.92"/>
  <rect x="14" y="218" width="60" height="2.5" fill="white" opacity="0.92"/>
  <rect x="14" y="225" width="70" height="2.5" fill="white" opacity="0.92"/>
  <rect x="14" y="232" width="55" height="2.5" fill="white" opacity="0.92"/>

  <!-- Sidopanel: Kompetenser -->
  <rect x="14" y="254" width="65" height="3" fill="white" opacity="0.95"/>
  <line x1="14" y1="263" x2="88" y2="263" stroke="white" opacity="0.45"/>
  <rect x="14" y="271" width="80" height="2.5" fill="white" opacity="0.9"/>
  <rect x="14" y="278" width="70" height="2.5" fill="white" opacity="0.9"/>
  <rect x="14" y="285" width="65" height="2.5" fill="white" opacity="0.9"/>
  <rect x="14" y="292" width="75" height="2.5" fill="white" opacity="0.9"/>

  <!-- Sidopanel: Arbetsplatser -->
  <rect x="14" y="314" width="70" height="3" fill="white" opacity="0.95"/>
  <line x1="14" y1="323" x2="88" y2="323" stroke="white" opacity="0.45"/>
  <rect x="14" y="331" width="78" height="2.5" fill="white" opacity="0.85"/>
  <rect x="14" y="338" width="65" height="2.5" fill="white" opacity="0.85"/>
  <rect x="14" y="345" width="70" height="2.5" fill="white" opacity="0.85"/>

  <!-- Main: Header -->
  <rect x="113" y="32" width="120" height="11" fill="#1f2937" rx="1"/>
  <rect x="113" y="50" width="80" height="5" fill="#a87f50" rx="1"/>
  <line x1="113" y1="68" x2="280" y2="68" stroke="#c9a37b" stroke-width="1.5"/>

  <!-- Sammanfattning -->
  <rect x="113" y="80" width="160" height="3" fill="#1f2937" rx="0.5"/>
  <rect x="113" y="88" width="155" height="3" fill="#1f2937" rx="0.5"/>
  <rect x="113" y="96" width="140" height="3" fill="#1f2937" rx="0.5"/>

  <!-- Sektion: Branscherfarenhet -->
  <rect x="113" y="120" width="100" height="4" fill="#1f2937" rx="0.5"/>
  <line x1="113" y1="130" x2="280" y2="130" stroke="#c9a37b" stroke-width="1.2"/>

  <!-- Job 1 -->
  <rect x="113" y="142" width="100" height="4" fill="#1f2937" rx="0.5"/>
  <rect x="240" y="143" width="40" height="3" fill="#64748b" rx="0.5"/>
  <rect x="113" y="152" width="80" height="3" fill="#a87f50" rx="0.5"/>
  <circle cx="116" cy="165" r="2" fill="#c9a37b"/>
  <rect x="123" y="163" width="148" height="2.5" fill="#1f2937" rx="0.5"/>
  <circle cx="116" cy="173" r="2" fill="#c9a37b"/>
  <rect x="123" y="171" width="135" height="2.5" fill="#1f2937" rx="0.5"/>

  <line x1="113" y1="190" x2="280" y2="190" stroke="#f1f5f9" stroke-width="1"/>

  <!-- Job 2 -->
  <rect x="113" y="200" width="90" height="4" fill="#1f2937" rx="0.5"/>
  <rect x="240" y="201" width="40" height="3" fill="#64748b" rx="0.5"/>
  <rect x="113" y="210" width="70" height="3" fill="#a87f50" rx="0.5"/>
  <circle cx="116" cy="223" r="2" fill="#c9a37b"/>
  <rect x="123" y="221" width="140" height="2.5" fill="#1f2937" rx="0.5"/>

  <!-- Sektion: Utbildning -->
  <rect x="113" y="252" width="60" height="4" fill="#1f2937" rx="0.5"/>
  <line x1="113" y1="262" x2="280" y2="262" stroke="#c9a37b" stroke-width="1.2"/>
  <rect x="113" y="274" width="120" height="4" fill="#1f2937" rx="0.5"/>
  <rect x="240" y="275" width="40" height="3" fill="#64748b" rx="0.5"/>
  <rect x="113" y="284" width="80" height="3" fill="#475569" rx="0.5"/>
</svg>
