<svg width="300" height="400" viewBox="0 0 300 400" fill="none" xmlns="http://www.w3.org/2000/svg">
  <rect width="300" height="400" fill="white"/>

  <!-- Fyrkantigt foto med cyan ram -->
  <rect x="20" y="22" width="56" height="56" fill="#0e7490" rx="4"/>
  <rect x="22" y="24" width="52" height="52" fill="#ecfeff" rx="3"/>
  <text x="48" y="58" text-anchor="middle" font-family="Inter,sans-serif" font-size="22" font-weight="700" fill="#0e7490">A</text>

  <rect x="86" y="30" width="180" height="13" fill="#0f172a" rx="0.5"/>
  <rect x="86" y="50" width="120" height="6" fill="#0e7490" rx="0.5"/>
  <rect x="86" y="64" width="180" height="2.5" fill="#475569" rx="0.5"/>
  <rect x="86" y="71" width="100" height="2.5" fill="#475569" rx="0.5"/>

  <line x1="20" y1="92" x2="280" y2="92" stroke="#06b6d4" stroke-width="1"/>

  <!-- Stack pill banner -->
  <rect x="20" y="100" width="260" height="22" fill="#f8fafc" stroke="#cbd5e1" stroke-width="0.5" rx="2"/>
  <text x="28" y="114" font-family="monospace" font-size="6" font-weight="700" fill="#0e7490">STACK //</text>
  <rect x="68" y="106" width="32" height="10" fill="#ecfeff" stroke="#0e7490" stroke-width="0.5" rx="5"/>
  <rect x="106" y="106" width="32" height="10" fill="#ecfeff" stroke="#0e7490" stroke-width="0.5" rx="5"/>
  <rect x="144" y="106" width="32" height="10" fill="#ecfeff" stroke="#0e7490" stroke-width="0.5" rx="5"/>
  <rect x="182" y="106" width="32" height="10" fill="#ecfeff" stroke="#0e7490" stroke-width="0.5" rx="5"/>
  <rect x="220" y="106" width="32" height="10" fill="#ecfeff" stroke="#0e7490" stroke-width="0.5" rx="5"/>

  <!-- Två-kolumn body -->
  <!-- Vänster -->
  <rect x="20" y="138" width="120" height="6" fill="#0e7490" rx="1"/>
  <rect x="20" y="156" width="120" height="3.5" fill="#0f172a" rx="0.5"/>
  <rect x="20" y="164" width="80" height="3" fill="#0e7490" rx="0.5"/>
  <rect x="155" y="156" width="35" height="3" fill="#475569" rx="0.5"/>
  <rect x="20" y="178" width="170" height="2.5" fill="#1f2937" rx="0.5"/>
  <rect x="20" y="186" width="155" height="2.5" fill="#1f2937" rx="0.5"/>
  <rect x="20" y="194" width="160" height="2.5" fill="#1f2937" rx="0.5"/>

  <line x1="20" y1="210" x2="190" y2="210" stroke="#e5e7eb"/>

  <rect x="20" y="222" width="100" height="3.5" fill="#0f172a" rx="0.5"/>
  <rect x="20" y="230" width="70" height="3" fill="#0e7490" rx="0.5"/>
  <rect x="20" y="244" width="170" height="2.5" fill="#1f2937" rx="0.5"/>
  <rect x="20" y="252" width="155" height="2.5" fill="#1f2937" rx="0.5"/>

  <line x1="20" y1="270" x2="190" y2="270" stroke="#e5e7eb"/>

  <rect x="20" y="282" width="120" height="3.5" fill="#0f172a" rx="0.5"/>
  <rect x="20" y="290" width="70" height="3" fill="#0e7490" rx="0.5"/>
  <rect x="20" y="304" width="170" height="2.5" fill="#1f2937" rx="0.5"/>
  <rect x="20" y="312" width="160" height="2.5" fill="#1f2937" rx="0.5"/>

  <!-- Höger sidopanel: Verktyg & övrigt -->
  <rect x="200" y="138" width="80" height="170" fill="#f8fafc" rx="2"/>
  <rect x="208" y="148" width="60" height="5" fill="#0e7490" rx="0.5"/>
  <rect x="208" y="162" width="60" height="2.5" fill="#1f2937" rx="0.5"/>
  <rect x="208" y="170" width="50" height="2.5" fill="#1f2937" rx="0.5"/>
  <rect x="208" y="178" width="55" height="2.5" fill="#1f2937" rx="0.5"/>
  <rect x="208" y="194" width="60" height="5" fill="#0e7490" rx="0.5"/>
  <rect x="208" y="208" width="60" height="2.5" fill="#1f2937" rx="0.5"/>
  <rect x="208" y="216" width="40" height="2.5" fill="#1f2937" rx="0.5"/>
  <rect x="208" y="232" width="60" height="5" fill="#0e7490" rx="0.5"/>
  <rect x="208" y="246" width="55" height="2.5" fill="#1f2937" rx="0.5"/>
  <rect x="208" y="254" width="50" height="2.5" fill="#1f2937" rx="0.5"/>

  <!-- Utbildning -->
  <rect x="20" y="338" width="80" height="6" fill="#0e7490" rx="1"/>
  <rect x="20" y="356" width="120" height="3.5" fill="#0f172a" rx="0.5"/>
  <rect x="20" y="364" width="80" height="3" fill="#475569" rx="0.5"/>
</svg>
