<svg width="300" height="400" viewBox="0 0 300 400" fill="none" xmlns="http://www.w3.org/2000/svg">
  <rect width="300" height="400" fill="white"/>

  <!-- Centrerad serif-header med foto -->
  <circle cx="150" cy="46" r="22" fill="#7c2d12"/>
  <circle cx="150" cy="46" r="18" fill="white"/>
  <text x="150" y="53" text-anchor="middle" font-family="Georgia,serif" font-size="20" font-weight="700" fill="#0f172a">A</text>

  <rect x="80" y="80" width="140" height="13" fill="#0f172a" rx="0.5"/>
  <rect x="105" y="98" width="90" height="5" fill="#7c2d12" rx="0.5"/>
  <rect x="60" y="110" width="180" height="2" fill="#475569" rx="0.5"/>

  <!-- Dubbel-linje under header -->
  <line x1="40" y1="124" x2="260" y2="124" stroke="#0f172a" stroke-width="0.7"/>
  <line x1="40" y1="128" x2="260" y2="128" stroke="#0f172a" stroke-width="0.7"/>

  <!-- Ornament — § — -->
  <text x="150" y="146" text-anchor="middle" font-family="Georgia,serif" font-size="10" fill="#7c2d12">— § —</text>

  <!-- Yrkesprofil-blockquote (italic) -->
  <rect x="40" y="158" width="220" height="32" fill="#fff7ed" rx="2"/>
  <rect x="40" y="158" width="2" height="32" fill="#7c2d12"/>
  <rect x="50" y="166" width="200" height="3" fill="#475569" rx="0.5"/>
  <rect x="50" y="174" width="190" height="3" fill="#475569" rx="0.5"/>
  <rect x="50" y="182" width="180" height="3" fill="#475569" rx="0.5"/>

  <!-- Sektion: Erfarenhet (centrerad serif-rubrik) -->
  <text x="150" y="216" text-anchor="middle" font-family="Georgia,serif" font-size="9" font-weight="700" fill="#0f172a">ERFARENHET</text>
  <line x1="100" y1="226" x2="200" y2="226" stroke="#7c2d12" stroke-width="0.7"/>

  <rect x="40" y="240" width="160" height="4" fill="#0f172a" rx="0.5"/>
  <rect x="220" y="241" width="40" height="3" fill="#475569" rx="0.5"/>
  <rect x="40" y="250" width="100" height="3" fill="#7c2d12" rx="0.5"/>
  <rect x="40" y="262" width="220" height="2.5" fill="#1f2937" rx="0.5"/>
  <rect x="40" y="270" width="200" height="2.5" fill="#1f2937" rx="0.5"/>
  <rect x="40" y="278" width="190" height="2.5" fill="#1f2937" rx="0.5"/>

  <line x1="40" y1="294" x2="260" y2="294" stroke="#e5e7eb"/>

  <rect x="40" y="306" width="140" height="4" fill="#0f172a" rx="0.5"/>
  <rect x="220" y="307" width="40" height="3" fill="#475569" rx="0.5"/>
  <rect x="40" y="316" width="100" height="3" fill="#7c2d12" rx="0.5"/>
  <rect x="40" y="328" width="220" height="2.5" fill="#1f2937" rx="0.5"/>
  <rect x="40" y="336" width="200" height="2.5" fill="#1f2937" rx="0.5"/>

  <!-- Utbildning -->
  <text x="150" y="364" text-anchor="middle" font-family="Georgia,serif" font-size="9" font-weight="700" fill="#0f172a">UTBILDNING</text>
  <line x1="100" y1="372" x2="200" y2="372" stroke="#7c2d12" stroke-width="0.7"/>
  <rect x="40" y="384" width="120" height="3.5" fill="#0f172a" rx="0.5"/>
  <rect x="220" y="385" width="40" height="3" fill="#475569" rx="0.5"/>
</svg>
